<svg width="690" height="539" viewBox="0 0 690 539" fill="none" xmlns="http://www.w3.org/2000/svg">
<g opacity="0.4">
<path d="M4.07999 366.16C6.33332 366.16 8.16 364.333 8.16 362.08C8.16 359.827 6.33332 358 4.07999 358C1.82667 358 0 359.827 0 362.08C0 364.333 1.82667 366.16 4.07999 366.16Z" fill="#00A0DF"/>
<path d="M61.4501 366.16C63.7034 366.16 65.5301 364.333 65.5301 362.08C65.5301 359.827 63.7034 358 61.4501 358C59.1968 358 57.3701 359.827 57.3701 362.08C57.3701 364.333 59.1968 366.16 61.4501 366.16Z" fill="#00A0DF"/>
<path d="M61.4501 423.52C63.7034 423.52 65.5301 421.693 65.5301 419.44C65.5301 417.187 63.7034 415.36 61.4501 415.36C59.1968 415.36 57.3701 417.187 57.3701 419.44C57.3701 421.693 59.1968 423.52 61.4501 423.52Z" fill="#00A0DF"/>
<path d="M4.07999 480.89C6.33332 480.89 8.16 479.063 8.16 476.81C8.16 474.557 6.33332 472.73 4.07999 472.73C1.82667 472.73 0 474.557 0 476.81C0 479.063 1.82667 480.89 4.07999 480.89Z" fill="#00A0DF"/>
<path d="M61.4501 480.89C63.7034 480.89 65.5301 479.063 65.5301 476.81C65.5301 474.557 63.7034 472.73 61.4501 472.73C59.1968 472.73 57.3701 474.557 57.3701 476.81C57.3701 479.063 59.1968 480.89 61.4501 480.89Z" fill="#00A0DF"/>
<path d="M4.07999 423.52C6.33332 423.52 8.16 421.693 8.16 419.44C8.16 417.187 6.33332 415.36 4.07999 415.36C1.82667 415.36 0 417.187 0 419.44C0 421.693 1.82667 423.52 4.07999 423.52Z" fill="#00A0DF"/>
<path d="M61.4501 366.16C63.7034 366.16 65.5301 364.333 65.5301 362.08C65.5301 359.827 63.7034 358 61.4501 358C59.1968 358 57.3701 359.827 57.3701 362.08C57.3701 364.333 59.1968 366.16 61.4501 366.16Z" fill="#00A0DF"/>
<path d="M118.81 366.16C121.064 366.16 122.89 364.333 122.89 362.08C122.89 359.827 121.064 358 118.81 358C116.557 358 114.73 359.827 114.73 362.08C114.73 364.333 116.557 366.16 118.81 366.16Z" fill="#00A0DF"/>
<path d="M176.18 366.16C178.433 366.16 180.26 364.333 180.26 362.08C180.26 359.827 178.433 358 176.18 358C173.926 358 172.1 359.827 172.1 362.08C172.1 364.333 173.926 366.16 176.18 366.16Z" fill="#00A0DF"/>
<path d="M61.4501 423.52C63.7034 423.52 65.5301 421.693 65.5301 419.44C65.5301 417.187 63.7034 415.36 61.4501 415.36C59.1968 415.36 57.3701 417.187 57.3701 419.44C57.3701 421.693 59.1968 423.52 61.4501 423.52Z" fill="#00A0DF"/>
<path d="M118.81 423.52C121.064 423.52 122.89 421.693 122.89 419.44C122.89 417.187 121.064 415.36 118.81 415.36C116.557 415.36 114.73 417.187 114.73 419.44C114.73 421.693 116.557 423.52 118.81 423.52Z" fill="#00A0DF"/>
<path d="M61.4501 480.89C63.7034 480.89 65.5301 479.063 65.5301 476.81C65.5301 474.557 63.7034 472.73 61.4501 472.73C59.1968 472.73 57.3701 474.557 57.3701 476.81C57.3701 479.063 59.1968 480.89 61.4501 480.89Z" fill="#00A0DF"/>
<path d="M118.81 480.89C121.064 480.89 122.89 479.063 122.89 476.81C122.89 474.557 121.064 472.73 118.81 472.73C116.557 472.73 114.73 474.557 114.73 476.81C114.73 479.063 116.557 480.89 118.81 480.89Z" fill="#00A0DF"/>
<path d="M176.18 480.89C178.433 480.89 180.26 479.063 180.26 476.81C180.26 474.557 178.433 472.73 176.18 472.73C173.926 472.73 172.1 474.557 172.1 476.81C172.1 479.063 173.926 480.89 176.18 480.89Z" fill="#00A0DF"/>
<path d="M176.18 423.52C178.433 423.52 180.26 421.693 180.26 419.44C180.26 417.187 178.433 415.36 176.18 415.36C173.926 415.36 172.1 417.187 172.1 419.44C172.1 421.693 173.926 423.52 176.18 423.52Z" fill="#00A0DF"/>
<path d="M4.07999 480.89C6.33332 480.89 8.16 479.063 8.16 476.81C8.16 474.557 6.33332 472.73 4.07999 472.73C1.82667 472.73 0 474.557 0 476.81C0 479.063 1.82667 480.89 4.07999 480.89Z" fill="#00A0DF"/>
<path d="M61.4501 480.89C63.7034 480.89 65.5301 479.063 65.5301 476.81C65.5301 474.557 63.7034 472.73 61.4501 472.73C59.1968 472.73 57.3701 474.557 57.3701 476.81C57.3701 479.063 59.1968 480.89 61.4501 480.89Z" fill="#00A0DF"/>
<path d="M4.07999 538.26C6.33332 538.26 8.16 536.433 8.16 534.18C8.16 531.927 6.33332 530.1 4.07999 530.1C1.82667 530.1 0 531.927 0 534.18C0 536.433 1.82667 538.26 4.07999 538.26Z" fill="#00A0DF"/>
<path d="M61.4501 538.26C63.7034 538.26 65.5301 536.433 65.5301 534.18C65.5301 531.927 63.7034 530.1 61.4501 530.1C59.1968 530.1 57.3701 531.927 57.3701 534.18C57.3701 536.433 59.1968 538.26 61.4501 538.26Z" fill="#00A0DF"/>
<path d="M61.4501 480.89C63.7034 480.89 65.5301 479.063 65.5301 476.81C65.5301 474.557 63.7034 472.73 61.4501 472.73C59.1968 472.73 57.3701 474.557 57.3701 476.81C57.3701 479.063 59.1968 480.89 61.4501 480.89Z" fill="#00A0DF"/>
<path d="M118.81 480.89C121.064 480.89 122.89 479.063 122.89 476.81C122.89 474.557 121.064 472.73 118.81 472.73C116.557 472.73 114.73 474.557 114.73 476.81C114.73 479.063 116.557 480.89 118.81 480.89Z" fill="#00A0DF"/>
<path d="M176.18 480.89C178.433 480.89 180.26 479.063 180.26 476.81C180.26 474.557 178.433 472.73 176.18 472.73C173.926 472.73 172.1 474.557 172.1 476.81C172.1 479.063 173.926 480.89 176.18 480.89Z" fill="#00A0DF"/>
<path d="M61.4501 538.26C63.7034 538.26 65.5301 536.433 65.5301 534.18C65.5301 531.927 63.7034 530.1 61.4501 530.1C59.1968 530.1 57.3701 531.927 57.3701 534.18C57.3701 536.433 59.1968 538.26 61.4501 538.26Z" fill="#00A0DF"/>
<path d="M118.81 538.26C121.064 538.26 122.89 536.433 122.89 534.18C122.89 531.927 121.064 530.1 118.81 530.1C116.557 530.1 114.73 531.927 114.73 534.18C114.73 536.433 116.557 538.26 118.81 538.26Z" fill="#00A0DF"/>
<path d="M176.18 538.26C178.433 538.26 180.26 536.433 180.26 534.18C180.26 531.927 178.433 530.1 176.18 530.1C173.926 530.1 172.1 531.927 172.1 534.18C172.1 536.433 173.926 538.26 176.18 538.26Z" fill="#00A0DF"/>
</g>
<g opacity="0.55">
<path d="M124.74 3.47701C125.699 3.47701 126.476 2.69869 126.476 1.73857C126.476 0.778447 125.699 0.00012207 124.74 0.00012207C123.781 0.00012207 123.004 0.778447 123.004 1.73857C123.004 2.69869 123.781 3.47701 124.74 3.47701Z" fill="#00A0DF"/>
<path d="M154.387 3.47689C155.346 3.47689 156.123 2.69857 156.123 1.73845C156.123 0.778325 155.346 0 154.387 0C153.429 0 152.651 0.778325 152.651 1.73845C152.651 2.69857 153.429 3.47689 154.387 3.47689Z" fill="#00A0DF"/>
<path d="M184.025 3.47689C184.984 3.47689 185.761 2.69857 185.761 1.73845C185.761 0.778325 184.984 0 184.025 0C183.066 0 182.289 0.778325 182.289 1.73845C182.289 2.69857 183.066 3.47689 184.025 3.47689Z" fill="#00A0DF"/>
<path d="M213.664 3.47689C214.623 3.47689 215.4 2.69857 215.4 1.73845C215.4 0.778325 214.623 0 213.664 0C212.705 0 211.928 0.778325 211.928 1.73845C211.928 2.69857 212.705 3.47689 213.664 3.47689Z" fill="#00A0DF"/>
<path d="M243.311 3.47689C244.27 3.47689 245.047 2.69857 245.047 1.73845C245.047 0.778325 244.27 0 243.311 0C242.352 0 241.575 0.778325 241.575 1.73845C241.575 2.69857 242.352 3.47689 243.311 3.47689Z" fill="#00A0DF"/>
<path d="M272.95 3.47689C273.909 3.47689 274.686 2.69857 274.686 1.73845C274.686 0.778325 273.909 0 272.95 0C271.991 0 271.214 0.778325 271.214 1.73845C271.214 2.69857 271.991 3.47689 272.95 3.47689Z" fill="#00A0DF"/>
<path d="M124.739 33.1666C125.698 33.1666 126.475 32.3883 126.475 31.4283C126.475 30.4682 125.698 29.6899 124.739 29.6899C123.78 29.6899 123.003 30.4682 123.003 31.4283C123.003 32.3883 123.78 33.1666 124.739 33.1666Z" fill="#00A0DF"/>
<path d="M154.387 33.1666C155.346 33.1666 156.123 32.3883 156.123 31.4283C156.123 30.4682 155.346 29.6899 154.387 29.6899C153.429 29.6899 152.651 30.4682 152.651 31.4283C152.651 32.3883 153.429 33.1666 154.387 33.1666Z" fill="#00A0DF"/>
<path d="M184.025 33.1666C184.984 33.1666 185.761 32.3883 185.761 31.4283C185.761 30.4682 184.984 29.6899 184.025 29.6899C183.066 29.6899 182.289 30.4682 182.289 31.4283C182.289 32.3883 183.066 33.1666 184.025 33.1666Z" fill="#00A0DF"/>
<path d="M213.664 33.1666C214.623 33.1666 215.4 32.3883 215.4 31.4283C215.4 30.4682 214.623 29.6899 213.664 29.6899C212.705 29.6899 211.928 30.4682 211.928 31.4283C211.928 32.3883 212.705 33.1666 213.664 33.1666Z" fill="#00A0DF"/>
<path d="M243.311 33.1666C244.27 33.1666 245.047 32.3883 245.047 31.4283C245.047 30.4682 244.27 29.6899 243.311 29.6899C242.352 29.6899 241.575 30.4682 241.575 31.4283C241.575 32.3883 242.352 33.1666 243.311 33.1666Z" fill="#00A0DF"/>
<path d="M272.95 33.1666C273.909 33.1666 274.686 32.3883 274.686 31.4283C274.686 30.4682 273.909 29.6899 272.95 29.6899C271.991 29.6899 271.214 30.4682 271.214 31.4283C271.214 32.3883 271.991 33.1666 272.95 33.1666Z" fill="#00A0DF"/>
<path d="M124.739 62.8455C125.698 62.8455 126.475 62.0673 126.475 61.1072C126.475 60.1472 125.698 59.3689 124.739 59.3689C123.78 59.3689 123.003 60.1472 123.003 61.1072C123.003 62.0673 123.78 62.8455 124.739 62.8455Z" fill="#00A0DF"/>
<path d="M154.387 62.8455C155.346 62.8455 156.123 62.0673 156.123 61.1072C156.123 60.1472 155.346 59.3689 154.387 59.3689C153.429 59.3689 152.651 60.1472 152.651 61.1072C152.651 62.0673 153.429 62.8455 154.387 62.8455Z" fill="#00A0DF"/>
<path d="M184.025 62.8455C184.984 62.8455 185.761 62.0673 185.761 61.1072C185.761 60.1472 184.984 59.3689 184.025 59.3689C183.066 59.3689 182.289 60.1472 182.289 61.1072C182.289 62.0673 183.066 62.8455 184.025 62.8455Z" fill="#00A0DF"/>
<path d="M213.664 62.8455C214.623 62.8455 215.4 62.0673 215.4 61.1072C215.4 60.1472 214.623 59.3689 213.664 59.3689C212.705 59.3689 211.928 60.1472 211.928 61.1072C211.928 62.0673 212.705 62.8455 213.664 62.8455Z" fill="#00A0DF"/>
<path d="M243.311 62.8455C244.27 62.8455 245.047 62.0673 245.047 61.1072C245.047 60.1472 244.27 59.3689 243.311 59.3689C242.352 59.3689 241.575 60.1472 241.575 61.1072C241.575 62.0673 242.352 62.8455 243.311 62.8455Z" fill="#00A0DF"/>
<path d="M273.115 62.8455C274.074 62.8455 274.851 62.0673 274.851 61.1072C274.851 60.1472 274.074 59.3689 273.115 59.3689C272.156 59.3689 271.379 60.1472 271.379 61.1072C271.379 62.0673 272.156 62.8455 273.115 62.8455Z" fill="#00A0DF"/>
<path d="M302.515 3.47689C303.474 3.47689 304.251 2.69857 304.251 1.73845C304.251 0.778325 303.474 0 302.515 0C301.556 0 300.779 0.778325 300.779 1.73845C300.779 2.69857 301.556 3.47689 302.515 3.47689Z" fill="#00A0DF"/>
<path d="M272.867 3.47689C273.826 3.47689 274.603 2.69857 274.603 1.73845C274.603 0.778325 273.826 0 272.867 0C271.908 0 271.131 0.778325 271.131 1.73845C271.131 2.69857 271.908 3.47689 272.867 3.47689Z" fill="#00A0DF"/>
<path d="M332.154 3.47689C333.113 3.47689 333.89 2.69857 333.89 1.73845C333.89 0.778325 333.113 0 332.154 0C331.195 0 330.418 0.778325 330.418 1.73845C330.418 2.69857 331.195 3.47689 332.154 3.47689Z" fill="#00A0DF"/>
<path d="M361.792 3.47689C362.75 3.47689 363.528 2.69857 363.528 1.73845C363.528 0.778325 362.75 0 361.792 0C360.833 0 360.056 0.778325 360.056 1.73845C360.056 2.69857 360.833 3.47689 361.792 3.47689Z" fill="#00A0DF"/>
<path d="M391.44 3.47689C392.399 3.47689 393.176 2.69857 393.176 1.73845C393.176 0.778325 392.399 0 391.44 0C390.481 0 389.704 0.778325 389.704 1.73845C389.704 2.69857 390.481 3.47689 391.44 3.47689Z" fill="#00A0DF"/>
<path d="M421.078 3.47689C422.037 3.47689 422.814 2.69857 422.814 1.73845C422.814 0.778325 422.037 0 421.078 0C420.119 0 419.342 0.778325 419.342 1.73845C419.342 2.69857 420.119 3.47689 421.078 3.47689Z" fill="#00A0DF"/>
<path d="M450.715 3.47689C451.674 3.47689 452.451 2.69857 452.451 1.73845C452.451 0.778325 451.674 0 450.715 0C449.757 0 448.979 0.778325 448.979 1.73845C448.979 2.69857 449.757 3.47689 450.715 3.47689Z" fill="#00A0DF"/>
<path d="M480.365 3.47689C481.324 3.47689 482.101 2.69857 482.101 1.73845C482.101 0.778325 481.324 0 480.365 0C479.406 0 478.629 0.778325 478.629 1.73845C478.629 2.69857 479.406 3.47689 480.365 3.47689Z" fill="#00A0DF"/>
<path d="M302.515 33.1666C303.474 33.1666 304.251 32.3883 304.251 31.4283C304.251 30.4682 303.474 29.6899 302.515 29.6899C301.556 29.6899 300.779 30.4682 300.779 31.4283C300.779 32.3883 301.556 33.1666 302.515 33.1666Z" fill="#00A0DF"/>
<path d="M272.867 33.1666C273.826 33.1666 274.603 32.3883 274.603 31.4283C274.603 30.4682 273.826 29.6899 272.867 29.6899C271.908 29.6899 271.131 30.4682 271.131 31.4283C271.131 32.3883 271.908 33.1666 272.867 33.1666Z" fill="#00A0DF"/>
<path d="M332.154 33.1666C333.113 33.1666 333.89 32.3883 333.89 31.4283C333.89 30.4682 333.113 29.6899 332.154 29.6899C331.195 29.6899 330.418 30.4682 330.418 31.4283C330.418 32.3883 331.195 33.1666 332.154 33.1666Z" fill="#00A0DF"/>
<path d="M361.792 33.1666C362.75 33.1666 363.528 32.3883 363.528 31.4283C363.528 30.4682 362.75 29.6899 361.792 29.6899C360.833 29.6899 360.056 30.4682 360.056 31.4283C360.056 32.3883 360.833 33.1666 361.792 33.1666Z" fill="#00A0DF"/>
<path d="M391.44 33.1666C392.399 33.1666 393.176 32.3883 393.176 31.4283C393.176 30.4682 392.399 29.6899 391.44 29.6899C390.481 29.6899 389.704 30.4682 389.704 31.4283C389.704 32.3883 390.481 33.1666 391.44 33.1666Z" fill="#00A0DF"/>
<path d="M421.078 33.1666C422.037 33.1666 422.814 32.3883 422.814 31.4283C422.814 30.4682 422.037 29.6899 421.078 29.6899C420.119 29.6899 419.342 30.4682 419.342 31.4283C419.342 32.3883 420.119 33.1666 421.078 33.1666Z" fill="#00A0DF"/>
<path d="M450.715 33.1666C451.674 33.1666 452.451 32.3883 452.451 31.4283C452.451 30.4682 451.674 29.6899 450.715 29.6899C449.757 29.6899 448.979 30.4682 448.979 31.4283C448.979 32.3883 449.757 33.1666 450.715 33.1666Z" fill="#00A0DF"/>
<path d="M480.365 33.1666C481.324 33.1666 482.101 32.3883 482.101 31.4283C482.101 30.4682 481.324 29.6899 480.365 29.6899C479.406 29.6899 478.629 30.4682 478.629 31.4283C478.629 32.3883 479.406 33.1666 480.365 33.1666Z" fill="#00A0DF"/>
<path d="M302.515 62.8455C303.474 62.8455 304.251 62.0673 304.251 61.1072C304.251 60.1472 303.474 59.3689 302.515 59.3689C301.556 59.3689 300.779 60.1472 300.779 61.1072C300.779 62.0673 301.556 62.8455 302.515 62.8455Z" fill="#00A0DF"/>
<path d="M272.867 62.8455C273.826 62.8455 274.603 62.0673 274.603 61.1072C274.603 60.1472 273.826 59.3689 272.867 59.3689C271.908 59.3689 271.131 60.1472 271.131 61.1072C271.131 62.0673 271.908 62.8455 272.867 62.8455Z" fill="#00A0DF"/>
<path d="M332.154 62.8455C333.113 62.8455 333.89 62.0673 333.89 61.1072C333.89 60.1472 333.113 59.3689 332.154 59.3689C331.195 59.3689 330.418 60.1472 330.418 61.1072C330.418 62.0673 331.195 62.8455 332.154 62.8455Z" fill="#00A0DF"/>
<path d="M361.792 62.8455C362.75 62.8455 363.528 62.0673 363.528 61.1072C363.528 60.1472 362.75 59.3689 361.792 59.3689C360.833 59.3689 360.056 60.1472 360.056 61.1072C360.056 62.0673 360.833 62.8455 361.792 62.8455Z" fill="#00A0DF"/>
<path d="M391.44 62.8455C392.399 62.8455 393.176 62.0673 393.176 61.1072C393.176 60.1472 392.399 59.3689 391.44 59.3689C390.481 59.3689 389.704 60.1472 389.704 61.1072C389.704 62.0673 390.481 62.8455 391.44 62.8455Z" fill="#00A0DF"/>
<path d="M421.078 62.8455C422.037 62.8455 422.814 62.0673 422.814 61.1072C422.814 60.1472 422.037 59.3689 421.078 59.3689C420.119 59.3689 419.342 60.1472 419.342 61.1072C419.342 62.0673 420.119 62.8455 421.078 62.8455Z" fill="#00A0DF"/>
<path d="M450.715 62.8455C451.674 62.8455 452.451 62.0673 452.451 61.1072C452.451 60.1472 451.674 59.3689 450.715 59.3689C449.757 59.3689 448.979 60.1472 448.979 61.1072C448.979 62.0673 449.757 62.8455 450.715 62.8455Z" fill="#00A0DF"/>
<path d="M480.519 62.8455C481.478 62.8455 482.255 62.0673 482.255 61.1072C482.255 60.1472 481.478 59.3689 480.519 59.3689C479.56 59.3689 478.783 60.1472 478.783 61.1072C478.783 62.0673 479.56 62.8455 480.519 62.8455Z" fill="#00A0DF"/>
<path d="M509.919 3.47689C510.878 3.47689 511.655 2.69857 511.655 1.73845C511.655 0.778325 510.878 0 509.919 0C508.961 0 508.184 0.778325 508.184 1.73845C508.184 2.69857 508.961 3.47689 509.919 3.47689Z" fill="#00A0DF"/>
<path d="M480.282 3.47689C481.241 3.47689 482.018 2.69857 482.018 1.73845C482.018 0.778325 481.241 0 480.282 0C479.323 0 478.546 0.778325 478.546 1.73845C478.546 2.69857 479.323 3.47689 480.282 3.47689Z" fill="#00A0DF"/>
<path d="M539.568 3.47689C540.527 3.47689 541.304 2.69857 541.304 1.73845C541.304 0.778325 540.527 0 539.568 0C538.609 0 537.832 0.778325 537.832 1.73845C537.832 2.69857 538.609 3.47689 539.568 3.47689Z" fill="#00A0DF"/>
<path d="M569.206 3.47689C570.165 3.47689 570.942 2.69857 570.942 1.73845C570.942 0.778325 570.165 0 569.206 0C568.247 0 567.47 0.778325 567.47 1.73845C567.47 2.69857 568.247 3.47689 569.206 3.47689Z" fill="#00A0DF"/>
<path d="M598.844 3.47689C599.803 3.47689 600.58 2.69857 600.58 1.73845C600.58 0.778325 599.803 0 598.844 0C597.886 0 597.108 0.778325 597.108 1.73845C597.108 2.69857 597.886 3.47689 598.844 3.47689Z" fill="#00A0DF"/>
<path d="M628.493 3.47689C629.451 3.47689 630.229 2.69857 630.229 1.73845C630.229 0.778325 629.451 0 628.493 0C627.534 0 626.757 0.778325 626.757 1.73845C626.757 2.69857 627.534 3.47689 628.493 3.47689Z" fill="#00A0DF"/>
<path d="M658.131 3.47689C659.089 3.47689 659.867 2.69857 659.867 1.73845C659.867 0.778325 659.089 0 658.131 0C657.172 0 656.395 0.778325 656.395 1.73845C656.395 2.69857 657.172 3.47689 658.131 3.47689Z" fill="#00A0DF"/>
<path d="M687.769 3.47689C688.728 3.47689 689.505 2.69857 689.505 1.73845C689.505 0.778325 688.728 0 687.769 0C686.81 0 686.033 0.778325 686.033 1.73845C686.033 2.69857 686.81 3.47689 687.769 3.47689Z" fill="#00A0DF"/>
<path d="M509.919 33.1666C510.878 33.1666 511.655 32.3883 511.655 31.4283C511.655 30.4682 510.878 29.6899 509.919 29.6899C508.961 29.6899 508.184 30.4682 508.184 31.4283C508.184 32.3883 508.961 33.1666 509.919 33.1666Z" fill="#00A0DF"/>
<path d="M480.282 33.1666C481.241 33.1666 482.018 32.3883 482.018 31.4283C482.018 30.4682 481.241 29.6899 480.282 29.6899C479.323 29.6899 478.546 30.4682 478.546 31.4283C478.546 32.3883 479.323 33.1666 480.282 33.1666Z" fill="#00A0DF"/>
<path d="M539.568 33.1666C540.527 33.1666 541.304 32.3883 541.304 31.4283C541.304 30.4682 540.527 29.6899 539.568 29.6899C538.609 29.6899 537.832 30.4682 537.832 31.4283C537.832 32.3883 538.609 33.1666 539.568 33.1666Z" fill="#00A0DF"/>
<path d="M569.206 33.1666C570.165 33.1666 570.942 32.3883 570.942 31.4283C570.942 30.4682 570.165 29.6899 569.206 29.6899C568.247 29.6899 567.47 30.4682 567.47 31.4283C567.47 32.3883 568.247 33.1666 569.206 33.1666Z" fill="#00A0DF"/>
<path d="M598.844 33.1666C599.803 33.1666 600.58 32.3883 600.58 31.4283C600.58 30.4682 599.803 29.6899 598.844 29.6899C597.886 29.6899 597.108 30.4682 597.108 31.4283C597.108 32.3883 597.886 33.1666 598.844 33.1666Z" fill="#00A0DF"/>
<path d="M628.493 33.1666C629.451 33.1666 630.229 32.3883 630.229 31.4283C630.229 30.4682 629.451 29.6899 628.493 29.6899C627.534 29.6899 626.757 30.4682 626.757 31.4283C626.757 32.3883 627.534 33.1666 628.493 33.1666Z" fill="#00A0DF"/>
<path d="M658.131 33.1666C659.089 33.1666 659.867 32.3883 659.867 31.4283C659.867 30.4682 659.089 29.6899 658.131 29.6899C657.172 29.6899 656.395 30.4682 656.395 31.4283C656.395 32.3883 657.172 33.1666 658.131 33.1666Z" fill="#00A0DF"/>
<path d="M687.769 33.1666C688.728 33.1666 689.505 32.3883 689.505 31.4283C689.505 30.4682 688.728 29.6899 687.769 29.6899C686.81 29.6899 686.033 30.4682 686.033 31.4283C686.033 32.3883 686.81 33.1666 687.769 33.1666Z" fill="#00A0DF"/>
<path d="M509.919 62.8455C510.878 62.8455 511.655 62.0673 511.655 61.1072C511.655 60.1472 510.878 59.3689 509.919 59.3689C508.961 59.3689 508.184 60.1472 508.184 61.1072C508.184 62.0673 508.961 62.8455 509.919 62.8455Z" fill="#00A0DF"/>
<path d="M480.282 62.8455C481.241 62.8455 482.018 62.0673 482.018 61.1072C482.018 60.1472 481.241 59.3689 480.282 59.3689C479.323 59.3689 478.546 60.1472 478.546 61.1072C478.546 62.0673 479.323 62.8455 480.282 62.8455Z" fill="#00A0DF"/>
<path d="M539.568 62.8455C540.527 62.8455 541.304 62.0673 541.304 61.1072C541.304 60.1472 540.527 59.3689 539.568 59.3689C538.609 59.3689 537.832 60.1472 537.832 61.1072C537.832 62.0673 538.609 62.8455 539.568 62.8455Z" fill="#00A0DF"/>
<path d="M569.206 62.8455C570.165 62.8455 570.942 62.0673 570.942 61.1072C570.942 60.1472 570.165 59.3689 569.206 59.3689C568.247 59.3689 567.47 60.1472 567.47 61.1072C567.47 62.0673 568.247 62.8455 569.206 62.8455Z" fill="#00A0DF"/>
<path d="M598.844 62.8455C599.803 62.8455 600.58 62.0673 600.58 61.1072C600.58 60.1472 599.803 59.3689 598.844 59.3689C597.886 59.3689 597.108 60.1472 597.108 61.1072C597.108 62.0673 597.886 62.8455 598.844 62.8455Z" fill="#00A0DF"/>
<path d="M628.493 62.8455C629.451 62.8455 630.229 62.0673 630.229 61.1072C630.229 60.1472 629.451 59.3689 628.493 59.3689C627.534 59.3689 626.757 60.1472 626.757 61.1072C626.757 62.0673 627.534 62.8455 628.493 62.8455Z" fill="#00A0DF"/>
<path d="M658.131 62.8454C659.089 62.8454 659.867 62.0671 659.867 61.1071C659.867 60.147 659.089 59.3688 658.131 59.3688C657.172 59.3688 656.395 60.147 656.395 61.1071C656.395 62.0671 657.172 62.8454 658.131 62.8454Z" fill="#00A0DF"/>
<path d="M687.933 62.8454C688.892 62.8454 689.669 62.0671 689.669 61.1071C689.669 60.147 688.892 59.3688 687.933 59.3688C686.974 59.3688 686.197 60.147 686.197 61.1071C686.197 62.0671 686.974 62.8454 687.933 62.8454Z" fill="#00A0DF"/>
<path d="M124.739 92.5246C125.698 92.5246 126.475 91.7463 126.475 90.7862C126.475 89.826 125.698 89.0477 124.739 89.0477C123.78 89.0477 123.003 89.826 123.003 90.7862C123.003 91.7463 123.78 92.5246 124.739 92.5246Z" fill="#00A0DF"/>
<path d="M124.739 122.214C125.698 122.214 126.475 121.436 126.475 120.476C126.475 119.516 125.698 118.738 124.739 118.738C123.78 118.738 123.003 119.516 123.003 120.476C123.003 121.436 123.78 122.214 124.739 122.214Z" fill="#00A0DF"/>
<path d="M154.387 92.5246C155.346 92.5246 156.123 91.7463 156.123 90.7862C156.123 89.826 155.346 89.0477 154.387 89.0477C153.429 89.0477 152.651 89.826 152.651 90.7862C152.651 91.7463 153.429 92.5246 154.387 92.5246Z" fill="#00A0DF"/>
<path d="M154.387 122.214C155.346 122.214 156.123 121.436 156.123 120.476C156.123 119.516 155.346 118.738 154.387 118.738C153.429 118.738 152.651 119.516 152.651 120.476C152.651 121.436 153.429 122.214 154.387 122.214Z" fill="#00A0DF"/>
<path d="M184.025 92.5246C184.984 92.5246 185.761 91.7463 185.761 90.7862C185.761 89.826 184.984 89.0477 184.025 89.0477C183.066 89.0477 182.289 89.826 182.289 90.7862C182.289 91.7463 183.066 92.5246 184.025 92.5246Z" fill="#00A0DF"/>
<path d="M184.025 122.214C184.984 122.214 185.761 121.436 185.761 120.476C185.761 119.516 184.984 118.738 184.025 118.738C183.066 118.738 182.289 119.516 182.289 120.476C182.289 121.436 183.066 122.214 184.025 122.214Z" fill="#00A0DF"/>
<path d="M213.664 92.5246C214.623 92.5246 215.4 91.7463 215.4 90.7862C215.4 89.826 214.623 89.0477 213.664 89.0477C212.705 89.0477 211.928 89.826 211.928 90.7862C211.928 91.7463 212.705 92.5246 213.664 92.5246Z" fill="#00A0DF"/>
<path d="M213.664 122.214C214.623 122.214 215.4 121.436 215.4 120.476C215.4 119.516 214.623 118.738 213.664 118.738C212.705 118.738 211.928 119.516 211.928 120.476C211.928 121.436 212.705 122.214 213.664 122.214Z" fill="#00A0DF"/>
<path d="M243.311 92.5246C244.27 92.5246 245.047 91.7463 245.047 90.7862C245.047 89.826 244.27 89.0477 243.311 89.0477C242.352 89.0477 241.575 89.826 241.575 90.7862C241.575 91.7463 242.352 92.5246 243.311 92.5246Z" fill="#00A0DF"/>
<path d="M243.311 122.214C244.27 122.214 245.047 121.436 245.047 120.476C245.047 119.516 244.27 118.738 243.311 118.738C242.352 118.738 241.575 119.516 241.575 120.476C241.575 121.436 242.352 122.214 243.311 122.214Z" fill="#00A0DF"/>
<path d="M272.95 92.5246C273.909 92.5246 274.686 91.7463 274.686 90.7862C274.686 89.826 273.909 89.0477 272.95 89.0477C271.991 89.0477 271.214 89.826 271.214 90.7862C271.214 91.7463 271.991 92.5246 272.95 92.5246Z" fill="#00A0DF"/>
<path d="M272.95 122.214C273.909 122.214 274.686 121.436 274.686 120.476C274.686 119.516 273.909 118.738 272.95 118.738C271.991 118.738 271.214 119.516 271.214 120.476C271.214 121.436 271.991 122.214 272.95 122.214Z" fill="#00A0DF"/>
<path d="M124.739 151.893C125.698 151.893 126.475 151.115 126.475 150.155C126.475 149.195 125.698 148.417 124.739 148.417C123.78 148.417 123.003 149.195 123.003 150.155C123.003 151.115 123.78 151.893 124.739 151.893Z" fill="#00A0DF"/>
<path d="M154.387 151.893C155.346 151.893 156.123 151.115 156.123 150.155C156.123 149.195 155.346 148.417 154.387 148.417C153.429 148.417 152.651 149.195 152.651 150.155C152.651 151.115 153.429 151.893 154.387 151.893Z" fill="#00A0DF"/>
<path d="M184.025 151.893C184.984 151.893 185.761 151.115 185.761 150.155C185.761 149.195 184.984 148.417 184.025 148.417C183.066 148.417 182.289 149.195 182.289 150.155C182.289 151.115 183.066 151.893 184.025 151.893Z" fill="#00A0DF"/>
<path d="M213.664 151.893C214.623 151.893 215.4 151.115 215.4 150.155C215.4 149.195 214.623 148.417 213.664 148.417C212.705 148.417 211.928 149.195 211.928 150.155C211.928 151.115 212.705 151.893 213.664 151.893Z" fill="#00A0DF"/>
<path d="M243.311 151.893C244.27 151.893 245.047 151.115 245.047 150.155C245.047 149.195 244.27 148.417 243.311 148.417C242.352 148.417 241.575 149.195 241.575 150.155C241.575 151.115 242.352 151.893 243.311 151.893Z" fill="#00A0DF"/>
<path d="M272.95 151.893C273.909 151.893 274.686 151.115 274.686 150.155C274.686 149.195 273.909 148.417 272.95 148.417C271.991 148.417 271.214 149.195 271.214 150.155C271.214 151.115 271.991 151.893 272.95 151.893Z" fill="#00A0DF"/>
<path d="M124.739 181.573C125.698 181.573 126.475 180.794 126.475 179.834C126.475 178.874 125.698 178.096 124.739 178.096C123.78 178.096 123.003 178.874 123.003 179.834C123.003 180.794 123.78 181.573 124.739 181.573Z" fill="#00A0DF"/>
<path d="M154.387 181.573C155.346 181.573 156.123 180.794 156.123 179.834C156.123 178.874 155.346 178.096 154.387 178.096C153.429 178.096 152.651 178.874 152.651 179.834C152.651 180.794 153.429 181.573 154.387 181.573Z" fill="#00A0DF"/>
<path d="M184.025 181.573C184.984 181.573 185.761 180.794 185.761 179.834C185.761 178.874 184.984 178.096 184.025 178.096C183.066 178.096 182.289 178.874 182.289 179.834C182.289 180.794 183.066 181.573 184.025 181.573Z" fill="#00A0DF"/>
<path d="M213.664 181.573C214.623 181.573 215.4 180.794 215.4 179.834C215.4 178.874 214.623 178.096 213.664 178.096C212.705 178.096 211.928 178.874 211.928 179.834C211.928 180.794 212.705 181.573 213.664 181.573Z" fill="#00A0DF"/>
<path d="M243.311 181.573C244.27 181.573 245.047 180.794 245.047 179.834C245.047 178.874 244.27 178.096 243.311 178.096C242.352 178.096 241.575 178.874 241.575 179.834C241.575 180.794 242.352 181.573 243.311 181.573Z" fill="#00A0DF"/>
<path d="M272.95 181.573C273.909 181.573 274.686 180.794 274.686 179.834C274.686 178.874 273.909 178.096 272.95 178.096C271.991 178.096 271.214 178.874 271.214 179.834C271.214 180.794 271.991 181.573 272.95 181.573Z" fill="#00A0DF"/>
<path d="M124.739 211.262C125.698 211.262 126.475 210.484 126.475 209.524C126.475 208.564 125.698 207.785 124.739 207.785C123.78 207.785 123.003 208.564 123.003 209.524C123.003 210.484 123.78 211.262 124.739 211.262Z" fill="#00A0DF"/>
<path d="M154.387 211.262C155.346 211.262 156.123 210.484 156.123 209.524C156.123 208.564 155.346 207.785 154.387 207.785C153.429 207.785 152.651 208.564 152.651 209.524C152.651 210.484 153.429 211.262 154.387 211.262Z" fill="#00A0DF"/>
<path d="M184.025 211.262C184.984 211.262 185.761 210.484 185.761 209.524C185.761 208.564 184.984 207.785 184.025 207.785C183.066 207.785 182.289 208.564 182.289 209.524C182.289 210.484 183.066 211.262 184.025 211.262Z" fill="#00A0DF"/>
<path d="M213.664 211.262C214.623 211.262 215.4 210.484 215.4 209.524C215.4 208.564 214.623 207.785 213.664 207.785C212.705 207.785 211.928 208.564 211.928 209.524C211.928 210.484 212.705 211.262 213.664 211.262Z" fill="#00A0DF"/>
<path d="M243.311 211.262C244.27 211.262 245.047 210.484 245.047 209.524C245.047 208.564 244.27 207.785 243.311 207.785C242.352 207.785 241.575 208.564 241.575 209.524C241.575 210.484 242.352 211.262 243.311 211.262Z" fill="#00A0DF"/>
<path d="M272.95 211.262C273.909 211.262 274.686 210.484 274.686 209.524C274.686 208.564 273.909 207.785 272.95 207.785C271.991 207.785 271.214 208.564 271.214 209.524C271.214 210.484 271.991 211.262 272.95 211.262Z" fill="#00A0DF"/>
<path d="M124.739 240.941C125.698 240.941 126.475 240.163 126.475 239.203C126.475 238.243 125.698 237.465 124.739 237.465C123.78 237.465 123.003 238.243 123.003 239.203C123.003 240.163 123.78 240.941 124.739 240.941Z" fill="#00A0DF"/>
<path d="M154.387 240.941C155.346 240.941 156.123 240.163 156.123 239.203C156.123 238.243 155.346 237.465 154.387 237.465C153.429 237.465 152.651 238.243 152.651 239.203C152.651 240.163 153.429 240.941 154.387 240.941Z" fill="#00A0DF"/>
<path d="M184.025 240.941C184.984 240.941 185.761 240.163 185.761 239.203C185.761 238.243 184.984 237.465 184.025 237.465C183.066 237.465 182.289 238.243 182.289 239.203C182.289 240.163 183.066 240.941 184.025 240.941Z" fill="#00A0DF"/>
<path d="M213.664 240.941C214.623 240.941 215.4 240.163 215.4 239.203C215.4 238.243 214.623 237.465 213.664 237.465C212.705 237.465 211.928 238.243 211.928 239.203C211.928 240.163 212.705 240.941 213.664 240.941Z" fill="#00A0DF"/>
<path d="M243.311 240.941C244.27 240.941 245.047 240.163 245.047 239.203C245.047 238.243 244.27 237.465 243.311 237.465C242.352 237.465 241.575 238.243 241.575 239.203C241.575 240.163 242.352 240.941 243.311 240.941Z" fill="#00A0DF"/>
<path d="M272.95 240.941C273.909 240.941 274.686 240.163 274.686 239.203C274.686 238.243 273.909 237.465 272.95 237.465C271.991 237.465 271.214 238.243 271.214 239.203C271.214 240.163 271.991 240.941 272.95 240.941Z" fill="#00A0DF"/>
<path d="M124.739 270.621C125.698 270.621 126.475 269.843 126.475 268.883C126.475 267.923 125.698 267.144 124.739 267.144C123.78 267.144 123.003 267.923 123.003 268.883C123.003 269.843 123.78 270.621 124.739 270.621Z" fill="#00A0DF"/>
<path d="M154.387 270.621C155.346 270.621 156.123 269.843 156.123 268.883C156.123 267.923 155.346 267.144 154.387 267.144C153.429 267.144 152.651 267.923 152.651 268.883C152.651 269.843 153.429 270.621 154.387 270.621Z" fill="#00A0DF"/>
<path d="M184.025 270.621C184.984 270.621 185.761 269.843 185.761 268.883C185.761 267.923 184.984 267.144 184.025 267.144C183.066 267.144 182.289 267.923 182.289 268.883C182.289 269.843 183.066 270.621 184.025 270.621Z" fill="#00A0DF"/>
<path d="M213.664 270.621C214.623 270.621 215.4 269.843 215.4 268.883C215.4 267.923 214.623 267.144 213.664 267.144C212.705 267.144 211.928 267.923 211.928 268.883C211.928 269.843 212.705 270.621 213.664 270.621Z" fill="#00A0DF"/>
<path d="M243.311 270.621C244.27 270.621 245.047 269.843 245.047 268.883C245.047 267.923 244.27 267.144 243.311 267.144C242.352 267.144 241.575 267.923 241.575 268.883C241.575 269.843 242.352 270.621 243.311 270.621Z" fill="#00A0DF"/>
<path d="M272.95 270.621C273.909 270.621 274.686 269.843 274.686 268.883C274.686 267.923 273.909 267.144 272.95 267.144C271.991 267.144 271.214 267.923 271.214 268.883C271.214 269.843 271.991 270.621 272.95 270.621Z" fill="#00A0DF"/>
<path d="M124.739 300.31C125.698 300.31 126.475 299.532 126.475 298.572C126.475 297.612 125.698 296.833 124.739 296.833C123.78 296.833 123.003 297.612 123.003 298.572C123.003 299.532 123.78 300.31 124.739 300.31Z" fill="#00A0DF"/>
<path d="M154.387 300.31C155.346 300.31 156.123 299.532 156.123 298.572C156.123 297.612 155.346 296.833 154.387 296.833C153.429 296.833 152.651 297.612 152.651 298.572C152.651 299.532 153.429 300.31 154.387 300.31Z" fill="#00A0DF"/>
<path d="M184.025 300.31C184.984 300.31 185.761 299.532 185.761 298.572C185.761 297.612 184.984 296.833 184.025 296.833C183.066 296.833 182.289 297.612 182.289 298.572C182.289 299.532 183.066 300.31 184.025 300.31Z" fill="#00A0DF"/>
<path d="M213.664 300.31C214.623 300.31 215.4 299.532 215.4 298.572C215.4 297.612 214.623 296.833 213.664 296.833C212.705 296.833 211.928 297.612 211.928 298.572C211.928 299.532 212.705 300.31 213.664 300.31Z" fill="#00A0DF"/>
<path d="M243.311 300.31C244.27 300.31 245.047 299.532 245.047 298.572C245.047 297.612 244.27 296.833 243.311 296.833C242.352 296.833 241.575 297.612 241.575 298.572C241.575 299.532 242.352 300.31 243.311 300.31Z" fill="#00A0DF"/>
<path d="M273.115 300.31C274.074 300.31 274.851 299.532 274.851 298.572C274.851 297.612 274.074 296.833 273.115 296.833C272.156 296.833 271.379 297.612 271.379 298.572C271.379 299.532 272.156 300.31 273.115 300.31Z" fill="#00A0DF"/>
<path d="M302.515 92.5246C303.474 92.5246 304.251 91.7463 304.251 90.7862C304.251 89.826 303.474 89.0477 302.515 89.0477C301.556 89.0477 300.779 89.826 300.779 90.7862C300.779 91.7463 301.556 92.5246 302.515 92.5246Z" fill="#00A0DF"/>
<path d="M272.867 92.5246C273.826 92.5246 274.603 91.7463 274.603 90.7862C274.603 89.826 273.826 89.0477 272.867 89.0477C271.908 89.0477 271.131 89.826 271.131 90.7862C271.131 91.7463 271.908 92.5246 272.867 92.5246Z" fill="#00A0DF"/>
<path d="M302.515 122.214C303.474 122.214 304.251 121.436 304.251 120.476C304.251 119.516 303.474 118.738 302.515 118.738C301.556 118.738 300.779 119.516 300.779 120.476C300.779 121.436 301.556 122.214 302.515 122.214Z" fill="#00A0DF"/>
<path d="M272.867 122.214C273.826 122.214 274.603 121.436 274.603 120.476C274.603 119.516 273.826 118.738 272.867 118.738C271.908 118.738 271.131 119.516 271.131 120.476C271.131 121.436 271.908 122.214 272.867 122.214Z" fill="#00A0DF"/>
<path d="M332.154 92.5246C333.113 92.5246 333.89 91.7463 333.89 90.7862C333.89 89.826 333.113 89.0477 332.154 89.0477C331.195 89.0477 330.418 89.826 330.418 90.7862C330.418 91.7463 331.195 92.5246 332.154 92.5246Z" fill="#00A0DF"/>
<path d="M332.154 122.214C333.113 122.214 333.89 121.436 333.89 120.476C333.89 119.516 333.113 118.738 332.154 118.738C331.195 118.738 330.418 119.516 330.418 120.476C330.418 121.436 331.195 122.214 332.154 122.214Z" fill="#00A0DF"/>
<path d="M361.792 92.5246C362.75 92.5246 363.528 91.7463 363.528 90.7862C363.528 89.826 362.75 89.0477 361.792 89.0477C360.833 89.0477 360.056 89.826 360.056 90.7862C360.056 91.7463 360.833 92.5246 361.792 92.5246Z" fill="#00A0DF"/>
<path d="M361.792 122.214C362.75 122.214 363.528 121.436 363.528 120.476C363.528 119.516 362.75 118.738 361.792 118.738C360.833 118.738 360.056 119.516 360.056 120.476C360.056 121.436 360.833 122.214 361.792 122.214Z" fill="#00A0DF"/>
<path d="M391.44 92.5246C392.399 92.5246 393.176 91.7463 393.176 90.7862C393.176 89.826 392.399 89.0477 391.44 89.0477C390.481 89.0477 389.704 89.826 389.704 90.7862C389.704 91.7463 390.481 92.5246 391.44 92.5246Z" fill="#00A0DF"/>
<path d="M391.44 122.214C392.399 122.214 393.176 121.436 393.176 120.476C393.176 119.516 392.399 118.738 391.44 118.738C390.481 118.738 389.704 119.516 389.704 120.476C389.704 121.436 390.481 122.214 391.44 122.214Z" fill="#00A0DF"/>
<path d="M421.078 92.5246C422.037 92.5246 422.814 91.7463 422.814 90.7862C422.814 89.826 422.037 89.0477 421.078 89.0477C420.119 89.0477 419.342 89.826 419.342 90.7862C419.342 91.7463 420.119 92.5246 421.078 92.5246Z" fill="#00A0DF"/>
<path d="M421.078 122.214C422.037 122.214 422.814 121.436 422.814 120.476C422.814 119.516 422.037 118.738 421.078 118.738C420.119 118.738 419.342 119.516 419.342 120.476C419.342 121.436 420.119 122.214 421.078 122.214Z" fill="#00A0DF"/>
<path d="M450.715 92.5246C451.674 92.5246 452.451 91.7463 452.451 90.7862C452.451 89.826 451.674 89.0477 450.715 89.0477C449.757 89.0477 448.979 89.826 448.979 90.7862C448.979 91.7463 449.757 92.5246 450.715 92.5246Z" fill="#00A0DF"/>
<path d="M450.715 122.214C451.674 122.214 452.451 121.436 452.451 120.476C452.451 119.516 451.674 118.738 450.715 118.738C449.757 118.738 448.979 119.516 448.979 120.476C448.979 121.436 449.757 122.214 450.715 122.214Z" fill="#00A0DF"/>
<path d="M480.365 92.5246C481.324 92.5246 482.101 91.7463 482.101 90.7862C482.101 89.826 481.324 89.0477 480.365 89.0477C479.406 89.0477 478.629 89.826 478.629 90.7862C478.629 91.7463 479.406 92.5246 480.365 92.5246Z" fill="#00A0DF"/>
<path d="M480.365 122.214C481.324 122.214 482.101 121.436 482.101 120.476C482.101 119.516 481.324 118.738 480.365 118.738C479.406 118.738 478.629 119.516 478.629 120.476C478.629 121.436 479.406 122.214 480.365 122.214Z" fill="#00A0DF"/>
<path d="M302.515 151.893C303.474 151.893 304.251 151.115 304.251 150.155C304.251 149.195 303.474 148.417 302.515 148.417C301.556 148.417 300.779 149.195 300.779 150.155C300.779 151.115 301.556 151.893 302.515 151.893Z" fill="#00A0DF"/>
<path d="M272.867 151.893C273.826 151.893 274.603 151.115 274.603 150.155C274.603 149.195 273.826 148.417 272.867 148.417C271.908 148.417 271.131 149.195 271.131 150.155C271.131 151.115 271.908 151.893 272.867 151.893Z" fill="#00A0DF"/>
<path d="M332.154 151.893C333.113 151.893 333.89 151.115 333.89 150.155C333.89 149.195 333.113 148.417 332.154 148.417C331.195 148.417 330.418 149.195 330.418 150.155C330.418 151.115 331.195 151.893 332.154 151.893Z" fill="#00A0DF"/>
<path d="M361.792 151.893C362.75 151.893 363.528 151.115 363.528 150.155C363.528 149.195 362.75 148.417 361.792 148.417C360.833 148.417 360.056 149.195 360.056 150.155C360.056 151.115 360.833 151.893 361.792 151.893Z" fill="#00A0DF"/>
<path d="M391.44 151.893C392.399 151.893 393.176 151.115 393.176 150.155C393.176 149.195 392.399 148.417 391.44 148.417C390.481 148.417 389.704 149.195 389.704 150.155C389.704 151.115 390.481 151.893 391.44 151.893Z" fill="#00A0DF"/>
<path d="M421.078 151.893C422.037 151.893 422.814 151.115 422.814 150.155C422.814 149.195 422.037 148.417 421.078 148.417C420.119 148.417 419.342 149.195 419.342 150.155C419.342 151.115 420.119 151.893 421.078 151.893Z" fill="#00A0DF"/>
<path d="M450.715 151.893C451.674 151.893 452.451 151.115 452.451 150.155C452.451 149.195 451.674 148.417 450.715 148.417C449.757 148.417 448.979 149.195 448.979 150.155C448.979 151.115 449.757 151.893 450.715 151.893Z" fill="#00A0DF"/>
<path d="M480.365 151.893C481.324 151.893 482.101 151.115 482.101 150.155C482.101 149.195 481.324 148.417 480.365 148.417C479.406 148.417 478.629 149.195 478.629 150.155C478.629 151.115 479.406 151.893 480.365 151.893Z" fill="#00A0DF"/>
<path d="M302.515 181.573C303.474 181.573 304.251 180.794 304.251 179.834C304.251 178.874 303.474 178.096 302.515 178.096C301.556 178.096 300.779 178.874 300.779 179.834C300.779 180.794 301.556 181.573 302.515 181.573Z" fill="#00A0DF"/>
<path d="M272.867 181.573C273.826 181.573 274.603 180.794 274.603 179.834C274.603 178.874 273.826 178.096 272.867 178.096C271.908 178.096 271.131 178.874 271.131 179.834C271.131 180.794 271.908 181.573 272.867 181.573Z" fill="#00A0DF"/>
<path d="M332.154 181.573C333.113 181.573 333.89 180.794 333.89 179.834C333.89 178.874 333.113 178.096 332.154 178.096C331.195 178.096 330.418 178.874 330.418 179.834C330.418 180.794 331.195 181.573 332.154 181.573Z" fill="#00A0DF"/>
<path d="M361.792 181.573C362.75 181.573 363.528 180.794 363.528 179.834C363.528 178.874 362.75 178.096 361.792 178.096C360.833 178.096 360.056 178.874 360.056 179.834C360.056 180.794 360.833 181.573 361.792 181.573Z" fill="#00A0DF"/>
<path d="M391.44 181.573C392.399 181.573 393.176 180.794 393.176 179.834C393.176 178.874 392.399 178.096 391.44 178.096C390.481 178.096 389.704 178.874 389.704 179.834C389.704 180.794 390.481 181.573 391.44 181.573Z" fill="#00A0DF"/>
<path d="M421.078 181.573C422.037 181.573 422.814 180.794 422.814 179.834C422.814 178.874 422.037 178.096 421.078 178.096C420.119 178.096 419.342 178.874 419.342 179.834C419.342 180.794 420.119 181.573 421.078 181.573Z" fill="#00A0DF"/>
<path d="M450.715 181.573C451.674 181.573 452.451 180.794 452.451 179.834C452.451 178.874 451.674 178.096 450.715 178.096C449.757 178.096 448.979 178.874 448.979 179.834C448.979 180.794 449.757 181.573 450.715 181.573Z" fill="#00A0DF"/>
<path d="M480.365 181.573C481.324 181.573 482.101 180.794 482.101 179.834C482.101 178.874 481.324 178.096 480.365 178.096C479.406 178.096 478.629 178.874 478.629 179.834C478.629 180.794 479.406 181.573 480.365 181.573Z" fill="#00A0DF"/>
<path d="M302.515 211.262C303.474 211.262 304.251 210.484 304.251 209.524C304.251 208.564 303.474 207.785 302.515 207.785C301.556 207.785 300.779 208.564 300.779 209.524C300.779 210.484 301.556 211.262 302.515 211.262Z" fill="#00A0DF"/>
<path d="M272.867 211.262C273.826 211.262 274.603 210.484 274.603 209.524C274.603 208.564 273.826 207.785 272.867 207.785C271.908 207.785 271.131 208.564 271.131 209.524C271.131 210.484 271.908 211.262 272.867 211.262Z" fill="#00A0DF"/>
<path d="M332.154 211.262C333.113 211.262 333.89 210.484 333.89 209.524C333.89 208.564 333.113 207.785 332.154 207.785C331.195 207.785 330.418 208.564 330.418 209.524C330.418 210.484 331.195 211.262 332.154 211.262Z" fill="#00A0DF"/>
<path d="M361.792 211.262C362.75 211.262 363.528 210.484 363.528 209.524C363.528 208.564 362.75 207.785 361.792 207.785C360.833 207.785 360.056 208.564 360.056 209.524C360.056 210.484 360.833 211.262 361.792 211.262Z" fill="#00A0DF"/>
<path d="M391.44 211.262C392.399 211.262 393.176 210.484 393.176 209.524C393.176 208.564 392.399 207.785 391.44 207.785C390.481 207.785 389.704 208.564 389.704 209.524C389.704 210.484 390.481 211.262 391.44 211.262Z" fill="#00A0DF"/>
<path d="M421.078 211.262C422.037 211.262 422.814 210.484 422.814 209.524C422.814 208.564 422.037 207.785 421.078 207.785C420.119 207.785 419.342 208.564 419.342 209.524C419.342 210.484 420.119 211.262 421.078 211.262Z" fill="#00A0DF"/>
<path d="M450.715 211.262C451.674 211.262 452.451 210.484 452.451 209.524C452.451 208.564 451.674 207.785 450.715 207.785C449.757 207.785 448.979 208.564 448.979 209.524C448.979 210.484 449.757 211.262 450.715 211.262Z" fill="#00A0DF"/>
<path d="M480.365 211.262C481.324 211.262 482.101 210.484 482.101 209.524C482.101 208.564 481.324 207.785 480.365 207.785C479.406 207.785 478.629 208.564 478.629 209.524C478.629 210.484 479.406 211.262 480.365 211.262Z" fill="#00A0DF"/>
<path d="M302.515 240.941C303.474 240.941 304.251 240.163 304.251 239.203C304.251 238.243 303.474 237.465 302.515 237.465C301.556 237.465 300.779 238.243 300.779 239.203C300.779 240.163 301.556 240.941 302.515 240.941Z" fill="#00A0DF"/>
<path d="M272.867 240.941C273.826 240.941 274.603 240.163 274.603 239.203C274.603 238.243 273.826 237.465 272.867 237.465C271.908 237.465 271.131 238.243 271.131 239.203C271.131 240.163 271.908 240.941 272.867 240.941Z" fill="#00A0DF"/>
<path d="M332.154 240.941C333.113 240.941 333.89 240.163 333.89 239.203C333.89 238.243 333.113 237.465 332.154 237.465C331.195 237.465 330.418 238.243 330.418 239.203C330.418 240.163 331.195 240.941 332.154 240.941Z" fill="#00A0DF"/>
<path d="M361.792 240.941C362.75 240.941 363.528 240.163 363.528 239.203C363.528 238.243 362.75 237.465 361.792 237.465C360.833 237.465 360.056 238.243 360.056 239.203C360.056 240.163 360.833 240.941 361.792 240.941Z" fill="#00A0DF"/>
<path d="M391.44 240.941C392.399 240.941 393.176 240.163 393.176 239.203C393.176 238.243 392.399 237.465 391.44 237.465C390.481 237.465 389.704 238.243 389.704 239.203C389.704 240.163 390.481 240.941 391.44 240.941Z" fill="#00A0DF"/>
<path d="M421.078 240.941C422.037 240.941 422.814 240.163 422.814 239.203C422.814 238.243 422.037 237.465 421.078 237.465C420.119 237.465 419.342 238.243 419.342 239.203C419.342 240.163 420.119 240.941 421.078 240.941Z" fill="#00A0DF"/>
<path d="M450.715 240.941C451.674 240.941 452.451 240.163 452.451 239.203C452.451 238.243 451.674 237.465 450.715 237.465C449.757 237.465 448.979 238.243 448.979 239.203C448.979 240.163 449.757 240.941 450.715 240.941Z" fill="#00A0DF"/>
<path d="M480.365 240.941C481.324 240.941 482.101 240.163 482.101 239.203C482.101 238.243 481.324 237.465 480.365 237.465C479.406 237.465 478.629 238.243 478.629 239.203C478.629 240.163 479.406 240.941 480.365 240.941Z" fill="#00A0DF"/>
<path d="M302.515 270.621C303.474 270.621 304.251 269.843 304.251 268.883C304.251 267.923 303.474 267.144 302.515 267.144C301.556 267.144 300.779 267.923 300.779 268.883C300.779 269.843 301.556 270.621 302.515 270.621Z" fill="#00A0DF"/>
<path d="M272.867 270.621C273.826 270.621 274.603 269.843 274.603 268.883C274.603 267.923 273.826 267.144 272.867 267.144C271.908 267.144 271.131 267.923 271.131 268.883C271.131 269.843 271.908 270.621 272.867 270.621Z" fill="#00A0DF"/>
<path d="M332.154 270.621C333.113 270.621 333.89 269.843 333.89 268.883C333.89 267.923 333.113 267.144 332.154 267.144C331.195 267.144 330.418 267.923 330.418 268.883C330.418 269.843 331.195 270.621 332.154 270.621Z" fill="#00A0DF"/>
<path d="M361.792 270.621C362.75 270.621 363.528 269.843 363.528 268.883C363.528 267.923 362.75 267.144 361.792 267.144C360.833 267.144 360.056 267.923 360.056 268.883C360.056 269.843 360.833 270.621 361.792 270.621Z" fill="#00A0DF"/>
<path d="M391.44 270.621C392.399 270.621 393.176 269.843 393.176 268.883C393.176 267.923 392.399 267.144 391.44 267.144C390.481 267.144 389.704 267.923 389.704 268.883C389.704 269.843 390.481 270.621 391.44 270.621Z" fill="#00A0DF"/>
<path d="M421.078 270.621C422.037 270.621 422.814 269.843 422.814 268.883C422.814 267.923 422.037 267.144 421.078 267.144C420.119 267.144 419.342 267.923 419.342 268.883C419.342 269.843 420.119 270.621 421.078 270.621Z" fill="#00A0DF"/>
<path d="M450.715 270.621C451.674 270.621 452.451 269.843 452.451 268.883C452.451 267.923 451.674 267.144 450.715 267.144C449.757 267.144 448.979 267.923 448.979 268.883C448.979 269.843 449.757 270.621 450.715 270.621Z" fill="#00A0DF"/>
<path d="M480.365 270.621C481.324 270.621 482.101 269.843 482.101 268.883C482.101 267.923 481.324 267.144 480.365 267.144C479.406 267.144 478.629 267.923 478.629 268.883C478.629 269.843 479.406 270.621 480.365 270.621Z" fill="#00A0DF"/>
<path d="M302.515 300.31C303.474 300.31 304.251 299.532 304.251 298.572C304.251 297.612 303.474 296.833 302.515 296.833C301.556 296.833 300.779 297.612 300.779 298.572C300.779 299.532 301.556 300.31 302.515 300.31Z" fill="#00A0DF"/>
<path d="M272.867 300.31C273.826 300.31 274.603 299.532 274.603 298.572C274.603 297.612 273.826 296.833 272.867 296.833C271.908 296.833 271.131 297.612 271.131 298.572C271.131 299.532 271.908 300.31 272.867 300.31Z" fill="#00A0DF"/>
<path d="M332.154 300.31C333.113 300.31 333.89 299.532 333.89 298.572C333.89 297.612 333.113 296.833 332.154 296.833C331.195 296.833 330.418 297.612 330.418 298.572C330.418 299.532 331.195 300.31 332.154 300.31Z" fill="#00A0DF"/>
<path d="M361.792 300.31C362.75 300.31 363.528 299.532 363.528 298.572C363.528 297.612 362.75 296.833 361.792 296.833C360.833 296.833 360.056 297.612 360.056 298.572C360.056 299.532 360.833 300.31 361.792 300.31Z" fill="#00A0DF"/>
<path d="M391.44 300.31C392.399 300.31 393.176 299.532 393.176 298.572C393.176 297.612 392.399 296.833 391.44 296.833C390.481 296.833 389.704 297.612 389.704 298.572C389.704 299.532 390.481 300.31 391.44 300.31Z" fill="#00A0DF"/>
<path d="M421.078 300.31C422.037 300.31 422.814 299.532 422.814 298.572C422.814 297.612 422.037 296.833 421.078 296.833C420.119 296.833 419.342 297.612 419.342 298.572C419.342 299.532 420.119 300.31 421.078 300.31Z" fill="#00A0DF"/>
<path d="M450.715 300.31C451.674 300.31 452.451 299.532 452.451 298.572C452.451 297.612 451.674 296.833 450.715 296.833C449.757 296.833 448.979 297.612 448.979 298.572C448.979 299.532 449.757 300.31 450.715 300.31Z" fill="#00A0DF"/>
<path d="M480.519 300.31C481.478 300.31 482.255 299.532 482.255 298.572C482.255 297.612 481.478 296.833 480.519 296.833C479.56 296.833 478.783 297.612 478.783 298.572C478.783 299.532 479.56 300.31 480.519 300.31Z" fill="#00A0DF"/>
<path d="M509.919 92.5246C510.878 92.5246 511.655 91.7463 511.655 90.7862C511.655 89.826 510.878 89.0477 509.919 89.0477C508.961 89.0477 508.184 89.826 508.184 90.7862C508.184 91.7463 508.961 92.5246 509.919 92.5246Z" fill="#00A0DF"/>
<path d="M480.282 92.5246C481.241 92.5246 482.018 91.7463 482.018 90.7862C482.018 89.826 481.241 89.0477 480.282 89.0477C479.323 89.0477 478.546 89.826 478.546 90.7862C478.546 91.7463 479.323 92.5246 480.282 92.5246Z" fill="#00A0DF"/>
<path d="M509.919 122.214C510.878 122.214 511.655 121.436 511.655 120.476C511.655 119.516 510.878 118.738 509.919 118.738C508.961 118.738 508.184 119.516 508.184 120.476C508.184 121.436 508.961 122.214 509.919 122.214Z" fill="#00A0DF"/>
<path d="M480.282 122.214C481.241 122.214 482.018 121.436 482.018 120.476C482.018 119.516 481.241 118.738 480.282 118.738C479.323 118.738 478.546 119.516 478.546 120.476C478.546 121.436 479.323 122.214 480.282 122.214Z" fill="#00A0DF"/>
<path d="M539.568 92.5246C540.527 92.5246 541.304 91.7463 541.304 90.7862C541.304 89.826 540.527 89.0477 539.568 89.0477C538.609 89.0477 537.832 89.826 537.832 90.7862C537.832 91.7463 538.609 92.5246 539.568 92.5246Z" fill="#00A0DF"/>
<path d="M539.568 122.214C540.527 122.214 541.304 121.436 541.304 120.476C541.304 119.516 540.527 118.738 539.568 118.738C538.609 118.738 537.832 119.516 537.832 120.476C537.832 121.436 538.609 122.214 539.568 122.214Z" fill="#00A0DF"/>
<path d="M569.206 92.5246C570.165 92.5246 570.942 91.7463 570.942 90.7862C570.942 89.826 570.165 89.0477 569.206 89.0477C568.247 89.0477 567.47 89.826 567.47 90.7862C567.47 91.7463 568.247 92.5246 569.206 92.5246Z" fill="#00A0DF"/>
<path d="M569.206 122.214C570.165 122.214 570.942 121.436 570.942 120.476C570.942 119.516 570.165 118.738 569.206 118.738C568.247 118.738 567.47 119.516 567.47 120.476C567.47 121.436 568.247 122.214 569.206 122.214Z" fill="#00A0DF"/>
<path d="M598.844 92.5246C599.803 92.5246 600.58 91.7463 600.58 90.7862C600.58 89.826 599.803 89.0477 598.844 89.0477C597.886 89.0477 597.108 89.826 597.108 90.7862C597.108 91.7463 597.886 92.5246 598.844 92.5246Z" fill="#00A0DF"/>
<path d="M598.844 122.214C599.803 122.214 600.58 121.436 600.58 120.476C600.58 119.516 599.803 118.738 598.844 118.738C597.886 118.738 597.108 119.516 597.108 120.476C597.108 121.436 597.886 122.214 598.844 122.214Z" fill="#00A0DF"/>
<path d="M628.493 92.5246C629.451 92.5246 630.229 91.7463 630.229 90.7862C630.229 89.826 629.451 89.0477 628.493 89.0477C627.534 89.0477 626.757 89.826 626.757 90.7862C626.757 91.7463 627.534 92.5246 628.493 92.5246Z" fill="#00A0DF"/>
<path d="M628.493 122.214C629.451 122.214 630.229 121.436 630.229 120.476C630.229 119.516 629.451 118.738 628.493 118.738C627.534 118.738 626.757 119.516 626.757 120.476C626.757 121.436 627.534 122.214 628.493 122.214Z" fill="#00A0DF"/>
<path d="M658.131 92.5246C659.089 92.5246 659.867 91.7463 659.867 90.7862C659.867 89.826 659.089 89.0477 658.131 89.0477C657.172 89.0477 656.395 89.826 656.395 90.7862C656.395 91.7463 657.172 92.5246 658.131 92.5246Z" fill="#00A0DF"/>
<path d="M658.131 122.214C659.089 122.214 659.867 121.436 659.867 120.476C659.867 119.516 659.089 118.738 658.131 118.738C657.172 118.738 656.395 119.516 656.395 120.476C656.395 121.436 657.172 122.214 658.131 122.214Z" fill="#00A0DF"/>
<path d="M687.769 92.5246C688.728 92.5246 689.505 91.7463 689.505 90.7862C689.505 89.826 688.728 89.0477 687.769 89.0477C686.81 89.0477 686.033 89.826 686.033 90.7862C686.033 91.7463 686.81 92.5246 687.769 92.5246Z" fill="#00A0DF"/>
<path d="M687.769 122.214C688.728 122.214 689.505 121.436 689.505 120.476C689.505 119.516 688.728 118.738 687.769 118.738C686.81 118.738 686.033 119.516 686.033 120.476C686.033 121.436 686.81 122.214 687.769 122.214Z" fill="#00A0DF"/>
<path d="M509.919 151.893C510.878 151.893 511.655 151.115 511.655 150.155C511.655 149.195 510.878 148.417 509.919 148.417C508.961 148.417 508.184 149.195 508.184 150.155C508.184 151.115 508.961 151.893 509.919 151.893Z" fill="#00A0DF"/>
<path d="M480.282 151.893C481.241 151.893 482.018 151.115 482.018 150.155C482.018 149.195 481.241 148.417 480.282 148.417C479.323 148.417 478.546 149.195 478.546 150.155C478.546 151.115 479.323 151.893 480.282 151.893Z" fill="#00A0DF"/>
<path d="M539.568 151.893C540.527 151.893 541.304 151.115 541.304 150.155C541.304 149.195 540.527 148.417 539.568 148.417C538.609 148.417 537.832 149.195 537.832 150.155C537.832 151.115 538.609 151.893 539.568 151.893Z" fill="#00A0DF"/>
<path d="M569.206 151.893C570.165 151.893 570.942 151.115 570.942 150.155C570.942 149.195 570.165 148.417 569.206 148.417C568.247 148.417 567.47 149.195 567.47 150.155C567.47 151.115 568.247 151.893 569.206 151.893Z" fill="#00A0DF"/>
<path d="M598.844 151.893C599.803 151.893 600.58 151.115 600.58 150.155C600.58 149.195 599.803 148.417 598.844 148.417C597.886 148.417 597.108 149.195 597.108 150.155C597.108 151.115 597.886 151.893 598.844 151.893Z" fill="#00A0DF"/>
<path d="M628.493 151.893C629.451 151.893 630.229 151.115 630.229 150.155C630.229 149.195 629.451 148.417 628.493 148.417C627.534 148.417 626.757 149.195 626.757 150.155C626.757 151.115 627.534 151.893 628.493 151.893Z" fill="#00A0DF"/>
<path d="M658.131 151.893C659.089 151.893 659.867 151.115 659.867 150.155C659.867 149.195 659.089 148.417 658.131 148.417C657.172 148.417 656.395 149.195 656.395 150.155C656.395 151.115 657.172 151.893 658.131 151.893Z" fill="#00A0DF"/>
<path d="M687.769 151.893C688.728 151.893 689.505 151.115 689.505 150.155C689.505 149.195 688.728 148.417 687.769 148.417C686.81 148.417 686.033 149.195 686.033 150.155C686.033 151.115 686.81 151.893 687.769 151.893Z" fill="#00A0DF"/>
<path d="M509.919 181.573C510.878 181.573 511.655 180.794 511.655 179.834C511.655 178.874 510.878 178.096 509.919 178.096C508.961 178.096 508.184 178.874 508.184 179.834C508.184 180.794 508.961 181.573 509.919 181.573Z" fill="#00A0DF"/>
<path d="M480.282 181.573C481.241 181.573 482.018 180.794 482.018 179.834C482.018 178.874 481.241 178.096 480.282 178.096C479.323 178.096 478.546 178.874 478.546 179.834C478.546 180.794 479.323 181.573 480.282 181.573Z" fill="#00A0DF"/>
<path d="M539.568 181.573C540.527 181.573 541.304 180.794 541.304 179.834C541.304 178.874 540.527 178.096 539.568 178.096C538.609 178.096 537.832 178.874 537.832 179.834C537.832 180.794 538.609 181.573 539.568 181.573Z" fill="#00A0DF"/>
<path d="M569.206 181.573C570.165 181.573 570.942 180.794 570.942 179.834C570.942 178.874 570.165 178.096 569.206 178.096C568.247 178.096 567.47 178.874 567.47 179.834C567.47 180.794 568.247 181.573 569.206 181.573Z" fill="#00A0DF"/>
<path d="M598.844 181.573C599.803 181.573 600.58 180.794 600.58 179.834C600.58 178.874 599.803 178.096 598.844 178.096C597.886 178.096 597.108 178.874 597.108 179.834C597.108 180.794 597.886 181.573 598.844 181.573Z" fill="#00A0DF"/>
<path d="M628.493 181.573C629.451 181.573 630.229 180.794 630.229 179.834C630.229 178.874 629.451 178.096 628.493 178.096C627.534 178.096 626.757 178.874 626.757 179.834C626.757 180.794 627.534 181.573 628.493 181.573Z" fill="#00A0DF"/>
<path d="M658.131 181.573C659.089 181.573 659.867 180.794 659.867 179.834C659.867 178.874 659.089 178.096 658.131 178.096C657.172 178.096 656.395 178.874 656.395 179.834C656.395 180.794 657.172 181.573 658.131 181.573Z" fill="#00A0DF"/>
<path d="M687.769 181.573C688.728 181.573 689.505 180.794 689.505 179.834C689.505 178.874 688.728 178.096 687.769 178.096C686.81 178.096 686.033 178.874 686.033 179.834C686.033 180.794 686.81 181.573 687.769 181.573Z" fill="#00A0DF"/>
<path d="M509.919 211.262C510.878 211.262 511.655 210.484 511.655 209.524C511.655 208.564 510.878 207.785 509.919 207.785C508.961 207.785 508.184 208.564 508.184 209.524C508.184 210.484 508.961 211.262 509.919 211.262Z" fill="#00A0DF"/>
<path d="M480.282 211.262C481.241 211.262 482.018 210.484 482.018 209.524C482.018 208.564 481.241 207.785 480.282 207.785C479.323 207.785 478.546 208.564 478.546 209.524C478.546 210.484 479.323 211.262 480.282 211.262Z" fill="#00A0DF"/>
<path d="M539.568 211.262C540.527 211.262 541.304 210.484 541.304 209.524C541.304 208.564 540.527 207.785 539.568 207.785C538.609 207.785 537.832 208.564 537.832 209.524C537.832 210.484 538.609 211.262 539.568 211.262Z" fill="#00A0DF"/>
<path d="M569.206 211.262C570.165 211.262 570.942 210.484 570.942 209.524C570.942 208.564 570.165 207.785 569.206 207.785C568.247 207.785 567.47 208.564 567.47 209.524C567.47 210.484 568.247 211.262 569.206 211.262Z" fill="#00A0DF"/>
<path d="M598.844 211.262C599.803 211.262 600.58 210.484 600.58 209.524C600.58 208.564 599.803 207.785 598.844 207.785C597.886 207.785 597.108 208.564 597.108 209.524C597.108 210.484 597.886 211.262 598.844 211.262Z" fill="#00A0DF"/>
<path d="M628.493 211.262C629.451 211.262 630.229 210.484 630.229 209.524C630.229 208.564 629.451 207.785 628.493 207.785C627.534 207.785 626.757 208.564 626.757 209.524C626.757 210.484 627.534 211.262 628.493 211.262Z" fill="#00A0DF"/>
<path d="M658.131 211.262C659.089 211.262 659.867 210.484 659.867 209.524C659.867 208.564 659.089 207.785 658.131 207.785C657.172 207.785 656.395 208.564 656.395 209.524C656.395 210.484 657.172 211.262 658.131 211.262Z" fill="#00A0DF"/>
<path d="M687.769 211.262C688.728 211.262 689.505 210.484 689.505 209.524C689.505 208.564 688.728 207.785 687.769 207.785C686.81 207.785 686.033 208.564 686.033 209.524C686.033 210.484 686.81 211.262 687.769 211.262Z" fill="#00A0DF"/>
<path d="M509.919 240.941C510.878 240.941 511.655 240.163 511.655 239.203C511.655 238.243 510.878 237.465 509.919 237.465C508.961 237.465 508.184 238.243 508.184 239.203C508.184 240.163 508.961 240.941 509.919 240.941Z" fill="#00A0DF"/>
<path d="M480.282 240.941C481.241 240.941 482.018 240.163 482.018 239.203C482.018 238.243 481.241 237.465 480.282 237.465C479.323 237.465 478.546 238.243 478.546 239.203C478.546 240.163 479.323 240.941 480.282 240.941Z" fill="#00A0DF"/>
<path d="M539.568 240.941C540.527 240.941 541.304 240.163 541.304 239.203C541.304 238.243 540.527 237.465 539.568 237.465C538.609 237.465 537.832 238.243 537.832 239.203C537.832 240.163 538.609 240.941 539.568 240.941Z" fill="#00A0DF"/>
<path d="M569.206 240.941C570.165 240.941 570.942 240.163 570.942 239.203C570.942 238.243 570.165 237.465 569.206 237.465C568.247 237.465 567.47 238.243 567.47 239.203C567.47 240.163 568.247 240.941 569.206 240.941Z" fill="#00A0DF"/>
<path d="M598.844 240.941C599.803 240.941 600.58 240.163 600.58 239.203C600.58 238.243 599.803 237.465 598.844 237.465C597.886 237.465 597.108 238.243 597.108 239.203C597.108 240.163 597.886 240.941 598.844 240.941Z" fill="#00A0DF"/>
<path d="M628.493 240.941C629.451 240.941 630.229 240.163 630.229 239.203C630.229 238.243 629.451 237.465 628.493 237.465C627.534 237.465 626.757 238.243 626.757 239.203C626.757 240.163 627.534 240.941 628.493 240.941Z" fill="#00A0DF"/>
<path d="M658.131 240.941C659.089 240.941 659.867 240.163 659.867 239.203C659.867 238.243 659.089 237.465 658.131 237.465C657.172 237.465 656.395 238.243 656.395 239.203C656.395 240.163 657.172 240.941 658.131 240.941Z" fill="#00A0DF"/>
<path d="M687.769 240.941C688.728 240.941 689.505 240.163 689.505 239.203C689.505 238.243 688.728 237.465 687.769 237.465C686.81 237.465 686.033 238.243 686.033 239.203C686.033 240.163 686.81 240.941 687.769 240.941Z" fill="#00A0DF"/>
<path d="M509.919 270.621C510.878 270.621 511.655 269.843 511.655 268.883C511.655 267.923 510.878 267.144 509.919 267.144C508.961 267.144 508.184 267.923 508.184 268.883C508.184 269.843 508.961 270.621 509.919 270.621Z" fill="#00A0DF"/>
<path d="M480.282 270.621C481.241 270.621 482.018 269.843 482.018 268.883C482.018 267.923 481.241 267.144 480.282 267.144C479.323 267.144 478.546 267.923 478.546 268.883C478.546 269.843 479.323 270.621 480.282 270.621Z" fill="#00A0DF"/>
<path d="M539.568 270.621C540.527 270.621 541.304 269.843 541.304 268.883C541.304 267.923 540.527 267.144 539.568 267.144C538.609 267.144 537.832 267.923 537.832 268.883C537.832 269.843 538.609 270.621 539.568 270.621Z" fill="#00A0DF"/>
<path d="M569.206 270.621C570.165 270.621 570.942 269.843 570.942 268.883C570.942 267.923 570.165 267.144 569.206 267.144C568.247 267.144 567.47 267.923 567.47 268.883C567.47 269.843 568.247 270.621 569.206 270.621Z" fill="#00A0DF"/>
<path d="M598.844 270.621C599.803 270.621 600.58 269.843 600.58 268.883C600.58 267.923 599.803 267.144 598.844 267.144C597.886 267.144 597.108 267.923 597.108 268.883C597.108 269.843 597.886 270.621 598.844 270.621Z" fill="#00A0DF"/>
<path d="M628.493 270.621C629.451 270.621 630.229 269.843 630.229 268.883C630.229 267.923 629.451 267.144 628.493 267.144C627.534 267.144 626.757 267.923 626.757 268.883C626.757 269.843 627.534 270.621 628.493 270.621Z" fill="#00A0DF"/>
<path d="M658.131 270.621C659.089 270.621 659.867 269.843 659.867 268.883C659.867 267.922 659.089 267.144 658.131 267.144C657.172 267.144 656.395 267.922 656.395 268.883C656.395 269.843 657.172 270.621 658.131 270.621Z" fill="#00A0DF"/>
<path d="M687.769 270.621C688.728 270.621 689.505 269.843 689.505 268.883C689.505 267.922 688.728 267.144 687.769 267.144C686.81 267.144 686.033 267.922 686.033 268.883C686.033 269.843 686.81 270.621 687.769 270.621Z" fill="#00A0DF"/>
<path d="M509.919 300.31C510.878 300.31 511.655 299.532 511.655 298.572C511.655 297.612 510.878 296.833 509.919 296.833C508.961 296.833 508.184 297.612 508.184 298.572C508.184 299.532 508.961 300.31 509.919 300.31Z" fill="#00A0DF"/>
<path d="M480.282 300.31C481.241 300.31 482.018 299.532 482.018 298.572C482.018 297.612 481.241 296.833 480.282 296.833C479.323 296.833 478.546 297.612 478.546 298.572C478.546 299.532 479.323 300.31 480.282 300.31Z" fill="#00A0DF"/>
<path d="M539.568 300.31C540.527 300.31 541.304 299.532 541.304 298.572C541.304 297.612 540.527 296.833 539.568 296.833C538.609 296.833 537.832 297.612 537.832 298.572C537.832 299.532 538.609 300.31 539.568 300.31Z" fill="#00A0DF"/>
<path d="M569.206 300.31C570.165 300.31 570.942 299.532 570.942 298.572C570.942 297.612 570.165 296.833 569.206 296.833C568.247 296.833 567.47 297.612 567.47 298.572C567.47 299.532 568.247 300.31 569.206 300.31Z" fill="#00A0DF"/>
<path d="M598.844 300.31C599.803 300.31 600.58 299.532 600.58 298.572C600.58 297.612 599.803 296.833 598.844 296.833C597.886 296.833 597.108 297.612 597.108 298.572C597.108 299.532 597.886 300.31 598.844 300.31Z" fill="#00A0DF"/>
<path d="M628.493 300.31C629.451 300.31 630.229 299.532 630.229 298.572C630.229 297.612 629.451 296.833 628.493 296.833C627.534 296.833 626.757 297.612 626.757 298.572C626.757 299.532 627.534 300.31 628.493 300.31Z" fill="#00A0DF"/>
<path d="M658.131 300.31C659.089 300.31 659.867 299.532 659.867 298.572C659.867 297.612 659.089 296.833 658.131 296.833C657.172 296.833 656.395 297.612 656.395 298.572C656.395 299.532 657.172 300.31 658.131 300.31Z" fill="#00A0DF"/>
<path d="M687.933 300.31C688.892 300.31 689.669 299.532 689.669 298.572C689.669 297.612 688.892 296.833 687.933 296.833C686.974 296.833 686.197 297.612 686.197 298.572C686.197 299.532 686.974 300.31 687.933 300.31Z" fill="#00A0DF"/>
<path d="M124.739 329.989C125.698 329.989 126.475 329.211 126.475 328.251C126.475 327.291 125.698 326.513 124.739 326.513C123.78 326.513 123.003 327.291 123.003 328.251C123.003 329.211 123.78 329.989 124.739 329.989Z" fill="#00A0DF"/>
<path d="M124.739 359.669C125.698 359.669 126.475 358.89 126.475 357.93C126.475 356.97 125.698 356.192 124.739 356.192C123.78 356.192 123.003 356.97 123.003 357.93C123.003 358.89 123.78 359.669 124.739 359.669Z" fill="#00A0DF"/>
<path d="M154.387 329.989C155.346 329.989 156.123 329.211 156.123 328.251C156.123 327.291 155.346 326.513 154.387 326.513C153.429 326.513 152.651 327.291 152.651 328.251C152.651 329.211 153.429 329.989 154.387 329.989Z" fill="#00A0DF"/>
<path d="M154.387 359.669C155.346 359.669 156.123 358.89 156.123 357.93C156.123 356.97 155.346 356.192 154.387 356.192C153.429 356.192 152.651 356.97 152.651 357.93C152.651 358.89 153.429 359.669 154.387 359.669Z" fill="#00A0DF"/>
<path d="M184.025 329.989C184.984 329.989 185.761 329.211 185.761 328.251C185.761 327.291 184.984 326.513 184.025 326.513C183.066 326.513 182.289 327.291 182.289 328.251C182.289 329.211 183.066 329.989 184.025 329.989Z" fill="#00A0DF"/>
<path d="M184.025 359.669C184.984 359.669 185.761 358.89 185.761 357.93C185.761 356.97 184.984 356.192 184.025 356.192C183.066 356.192 182.289 356.97 182.289 357.93C182.289 358.89 183.066 359.669 184.025 359.669Z" fill="#00A0DF"/>
<path d="M213.664 329.989C214.623 329.989 215.4 329.211 215.4 328.251C215.4 327.291 214.623 326.513 213.664 326.513C212.705 326.513 211.928 327.291 211.928 328.251C211.928 329.211 212.705 329.989 213.664 329.989Z" fill="#00A0DF"/>
<path d="M213.664 359.669C214.623 359.669 215.4 358.89 215.4 357.93C215.4 356.97 214.623 356.192 213.664 356.192C212.705 356.192 211.928 356.97 211.928 357.93C211.928 358.89 212.705 359.669 213.664 359.669Z" fill="#00A0DF"/>
<path d="M243.311 329.989C244.27 329.989 245.047 329.211 245.047 328.251C245.047 327.291 244.27 326.513 243.311 326.513C242.352 326.513 241.575 327.291 241.575 328.251C241.575 329.211 242.352 329.989 243.311 329.989Z" fill="#00A0DF"/>
<path d="M243.311 359.669C244.27 359.669 245.047 358.89 245.047 357.93C245.047 356.97 244.27 356.192 243.311 356.192C242.352 356.192 241.575 356.97 241.575 357.93C241.575 358.89 242.352 359.669 243.311 359.669Z" fill="#00A0DF"/>
<path d="M272.95 329.989C273.909 329.989 274.686 329.211 274.686 328.251C274.686 327.291 273.909 326.513 272.95 326.513C271.991 326.513 271.214 327.291 271.214 328.251C271.214 329.211 271.991 329.989 272.95 329.989Z" fill="#00A0DF"/>
<path d="M272.95 359.669C273.909 359.669 274.686 358.89 274.686 357.93C274.686 356.97 273.909 356.192 272.95 356.192C271.991 356.192 271.214 356.97 271.214 357.93C271.214 358.89 271.991 359.669 272.95 359.669Z" fill="#00A0DF"/>
<path d="M302.515 329.989C303.474 329.989 304.251 329.211 304.251 328.251C304.251 327.291 303.474 326.513 302.515 326.513C301.556 326.513 300.779 327.291 300.779 328.251C300.779 329.211 301.556 329.989 302.515 329.989Z" fill="#00A0DF"/>
<path d="M272.867 329.989C273.826 329.989 274.603 329.211 274.603 328.251C274.603 327.291 273.826 326.513 272.867 326.513C271.908 326.513 271.131 327.291 271.131 328.251C271.131 329.211 271.908 329.989 272.867 329.989Z" fill="#00A0DF"/>
<path d="M302.515 359.669C303.474 359.669 304.251 358.89 304.251 357.93C304.251 356.97 303.474 356.192 302.515 356.192C301.556 356.192 300.779 356.97 300.779 357.93C300.779 358.89 301.556 359.669 302.515 359.669Z" fill="#00A0DF"/>
<path d="M272.867 359.669C273.826 359.669 274.603 358.89 274.603 357.93C274.603 356.97 273.826 356.192 272.867 356.192C271.908 356.192 271.131 356.97 271.131 357.93C271.131 358.89 271.908 359.669 272.867 359.669Z" fill="#00A0DF"/>
<path d="M332.154 329.989C333.113 329.989 333.89 329.211 333.89 328.251C333.89 327.291 333.113 326.513 332.154 326.513C331.195 326.513 330.418 327.291 330.418 328.251C330.418 329.211 331.195 329.989 332.154 329.989Z" fill="#00A0DF"/>
<path d="M332.154 359.669C333.113 359.669 333.89 358.89 333.89 357.93C333.89 356.97 333.113 356.192 332.154 356.192C331.195 356.192 330.418 356.97 330.418 357.93C330.418 358.89 331.195 359.669 332.154 359.669Z" fill="#00A0DF"/>
<path d="M361.792 329.989C362.75 329.989 363.528 329.211 363.528 328.251C363.528 327.291 362.75 326.513 361.792 326.513C360.833 326.513 360.056 327.291 360.056 328.251C360.056 329.211 360.833 329.989 361.792 329.989Z" fill="#00A0DF"/>
<path d="M361.792 359.669C362.75 359.669 363.528 358.89 363.528 357.93C363.528 356.97 362.75 356.192 361.792 356.192C360.833 356.192 360.056 356.97 360.056 357.93C360.056 358.89 360.833 359.669 361.792 359.669Z" fill="#00A0DF"/>
<path d="M391.44 329.989C392.399 329.989 393.176 329.211 393.176 328.251C393.176 327.291 392.399 326.513 391.44 326.513C390.481 326.513 389.704 327.291 389.704 328.251C389.704 329.211 390.481 329.989 391.44 329.989Z" fill="#00A0DF"/>
<path d="M391.44 359.669C392.399 359.669 393.176 358.89 393.176 357.93C393.176 356.97 392.399 356.192 391.44 356.192C390.481 356.192 389.704 356.97 389.704 357.93C389.704 358.89 390.481 359.669 391.44 359.669Z" fill="#00A0DF"/>
<path d="M421.078 329.989C422.037 329.989 422.814 329.211 422.814 328.251C422.814 327.291 422.037 326.513 421.078 326.513C420.119 326.513 419.342 327.291 419.342 328.251C419.342 329.211 420.119 329.989 421.078 329.989Z" fill="#00A0DF"/>
<path d="M421.078 359.669C422.037 359.669 422.814 358.89 422.814 357.93C422.814 356.97 422.037 356.192 421.078 356.192C420.119 356.192 419.342 356.97 419.342 357.93C419.342 358.89 420.119 359.669 421.078 359.669Z" fill="#00A0DF"/>
<path d="M450.715 329.989C451.674 329.989 452.451 329.211 452.451 328.251C452.451 327.291 451.674 326.513 450.715 326.513C449.757 326.513 448.979 327.291 448.979 328.251C448.979 329.211 449.757 329.989 450.715 329.989Z" fill="#00A0DF"/>
<path d="M450.715 359.669C451.674 359.669 452.451 358.89 452.451 357.93C452.451 356.97 451.674 356.192 450.715 356.192C449.757 356.192 448.979 356.97 448.979 357.93C448.979 358.89 449.757 359.669 450.715 359.669Z" fill="#00A0DF"/>
<path d="M480.365 329.989C481.324 329.989 482.101 329.211 482.101 328.251C482.101 327.291 481.324 326.513 480.365 326.513C479.406 326.513 478.629 327.291 478.629 328.251C478.629 329.211 479.406 329.989 480.365 329.989Z" fill="#00A0DF"/>
<path d="M480.365 359.669C481.324 359.669 482.101 358.89 482.101 357.93C482.101 356.97 481.324 356.192 480.365 356.192C479.406 356.192 478.629 356.97 478.629 357.93C478.629 358.89 479.406 359.669 480.365 359.669Z" fill="#00A0DF"/>
<path d="M509.919 329.989C510.878 329.989 511.655 329.211 511.655 328.251C511.655 327.291 510.878 326.513 509.919 326.513C508.961 326.513 508.184 327.291 508.184 328.251C508.184 329.211 508.961 329.989 509.919 329.989Z" fill="#00A0DF"/>
<path d="M480.282 329.989C481.241 329.989 482.018 329.211 482.018 328.251C482.018 327.291 481.241 326.513 480.282 326.513C479.323 326.513 478.546 327.291 478.546 328.251C478.546 329.211 479.323 329.989 480.282 329.989Z" fill="#00A0DF"/>
<path d="M509.919 359.669C510.878 359.669 511.655 358.89 511.655 357.93C511.655 356.97 510.878 356.192 509.919 356.192C508.961 356.192 508.184 356.97 508.184 357.93C508.184 358.89 508.961 359.669 509.919 359.669Z" fill="#00A0DF"/>
<path d="M480.282 359.669C481.241 359.669 482.018 358.89 482.018 357.93C482.018 356.97 481.241 356.192 480.282 356.192C479.323 356.192 478.546 356.97 478.546 357.93C478.546 358.89 479.323 359.669 480.282 359.669Z" fill="#00A0DF"/>
<path d="M539.568 329.989C540.527 329.989 541.304 329.211 541.304 328.251C541.304 327.291 540.527 326.513 539.568 326.513C538.609 326.513 537.832 327.291 537.832 328.251C537.832 329.211 538.609 329.989 539.568 329.989Z" fill="#00A0DF"/>
<path d="M539.568 359.669C540.527 359.669 541.304 358.89 541.304 357.93C541.304 356.97 540.527 356.192 539.568 356.192C538.609 356.192 537.832 356.97 537.832 357.93C537.832 358.89 538.609 359.669 539.568 359.669Z" fill="#00A0DF"/>
<path d="M569.206 329.989C570.165 329.989 570.942 329.211 570.942 328.251C570.942 327.291 570.165 326.513 569.206 326.513C568.247 326.513 567.47 327.291 567.47 328.251C567.47 329.211 568.247 329.989 569.206 329.989Z" fill="#00A0DF"/>
<path d="M569.206 359.669C570.165 359.669 570.942 358.89 570.942 357.93C570.942 356.97 570.165 356.192 569.206 356.192C568.247 356.192 567.47 356.97 567.47 357.93C567.47 358.89 568.247 359.669 569.206 359.669Z" fill="#00A0DF"/>
<path d="M598.844 329.989C599.803 329.989 600.58 329.211 600.58 328.251C600.58 327.291 599.803 326.513 598.844 326.513C597.886 326.513 597.108 327.291 597.108 328.251C597.108 329.211 597.886 329.989 598.844 329.989Z" fill="#00A0DF"/>
<path d="M598.844 359.669C599.803 359.669 600.58 358.89 600.58 357.93C600.58 356.97 599.803 356.192 598.844 356.192C597.886 356.192 597.108 356.97 597.108 357.93C597.108 358.89 597.886 359.669 598.844 359.669Z" fill="#00A0DF"/>
<path d="M628.493 329.989C629.451 329.989 630.229 329.211 630.229 328.251C630.229 327.291 629.451 326.513 628.493 326.513C627.534 326.513 626.757 327.291 626.757 328.251C626.757 329.211 627.534 329.989 628.493 329.989Z" fill="#00A0DF"/>
<path d="M628.493 359.669C629.451 359.669 630.229 358.89 630.229 357.93C630.229 356.97 629.451 356.192 628.493 356.192C627.534 356.192 626.757 356.97 626.757 357.93C626.757 358.89 627.534 359.669 628.493 359.669Z" fill="#00A0DF"/>
<path d="M658.131 329.989C659.089 329.989 659.867 329.211 659.867 328.251C659.867 327.291 659.089 326.513 658.131 326.513C657.172 326.513 656.395 327.291 656.395 328.251C656.395 329.211 657.172 329.989 658.131 329.989Z" fill="#00A0DF"/>
<path d="M658.131 359.669C659.089 359.669 659.867 358.89 659.867 357.93C659.867 356.97 659.089 356.192 658.131 356.192C657.172 356.192 656.395 356.97 656.395 357.93C656.395 358.89 657.172 359.669 658.131 359.669Z" fill="#00A0DF"/>
<path d="M687.769 329.989C688.728 329.989 689.505 329.211 689.505 328.251C689.505 327.291 688.728 326.513 687.769 326.513C686.81 326.513 686.033 327.291 686.033 328.251C686.033 329.211 686.81 329.989 687.769 329.989Z" fill="#00A0DF"/>
<path d="M687.769 359.669C688.728 359.669 689.505 358.89 689.505 357.93C689.505 356.97 688.728 356.192 687.769 356.192C686.81 356.192 686.033 356.97 686.033 357.93C686.033 358.89 686.81 359.669 687.769 359.669Z" fill="#00A0DF"/>
</g>
<g clip-path="url(#clip0_356_2532)">
<path d="M228.492 257.561C230.821 257.561 232.708 255.67 232.708 253.339C232.708 251.007 230.821 249.117 228.492 249.117C226.164 249.117 224.276 251.007 224.276 253.339C224.276 255.67 226.164 257.561 228.492 257.561Z" fill="white"/>
<path d="M287.769 257.561C290.097 257.561 291.985 255.67 291.985 253.339C291.985 251.007 290.097 249.117 287.769 249.117C285.44 249.117 283.553 251.007 283.553 253.339C283.553 255.67 285.44 257.561 287.769 257.561Z" fill="white"/>
<path d="M347.055 257.561C349.383 257.561 351.271 255.67 351.271 253.339C351.271 251.007 349.383 249.117 347.055 249.117C344.726 249.117 342.839 251.007 342.839 253.339C342.839 255.67 344.726 257.561 347.055 257.561Z" fill="white"/>
<path d="M406.341 257.561C408.669 257.561 410.557 255.67 410.557 253.339C410.557 251.007 408.669 249.117 406.341 249.117C404.013 249.117 402.125 251.007 402.125 253.339C402.125 255.67 404.013 257.561 406.341 257.561Z" fill="white"/>
<path d="M406.341 257.561C408.669 257.561 410.557 255.67 410.557 253.339C410.557 251.007 408.669 249.117 406.341 249.117C404.013 249.117 402.125 251.007 402.125 253.339C402.125 255.67 404.013 257.561 406.341 257.561Z" fill="white"/>
<path d="M465.617 257.561C467.946 257.561 469.833 255.67 469.833 253.339C469.833 251.007 467.946 249.117 465.617 249.117C463.289 249.117 461.401 251.007 461.401 253.339C461.401 255.67 463.289 257.561 465.617 257.561Z" fill="white"/>
<path d="M524.903 257.561C527.232 257.561 529.119 255.67 529.119 253.339C529.119 251.007 527.232 249.117 524.903 249.117C522.575 249.117 520.688 251.007 520.688 253.339C520.688 255.67 522.575 257.561 524.903 257.561Z" fill="white"/>
<path d="M228.492 257.561C230.821 257.561 232.708 255.67 232.708 253.339C232.708 251.007 230.821 249.117 228.492 249.117C226.164 249.117 224.276 251.007 224.276 253.339C224.276 255.67 226.164 257.561 228.492 257.561Z" fill="white"/>
<path d="M287.769 257.561C290.097 257.561 291.985 255.67 291.985 253.339C291.985 251.007 290.097 249.117 287.769 249.117C285.44 249.117 283.553 251.007 283.553 253.339C283.553 255.67 285.44 257.561 287.769 257.561Z" fill="white"/>
<path d="M347.055 257.561C349.383 257.561 351.271 255.67 351.271 253.339C351.271 251.007 349.383 249.117 347.055 249.117C344.726 249.117 342.839 251.007 342.839 253.339C342.839 255.67 344.726 257.561 347.055 257.561Z" fill="white"/>
<path d="M406.341 257.561C408.669 257.561 410.557 255.67 410.557 253.339C410.557 251.007 408.669 249.117 406.341 249.117C404.013 249.117 402.125 251.007 402.125 253.339C402.125 255.67 404.013 257.561 406.341 257.561Z" fill="white"/>
<path d="M228.492 316.929C230.821 316.929 232.708 315.039 232.708 312.708C232.708 310.376 230.821 308.486 228.492 308.486C226.164 308.486 224.276 310.376 224.276 312.708C224.276 315.039 226.164 316.929 228.492 316.929Z" fill="white"/>
<path d="M287.769 316.929C290.097 316.929 291.985 315.039 291.985 312.708C291.985 310.376 290.097 308.486 287.769 308.486C285.44 308.486 283.553 310.376 283.553 312.708C283.553 315.039 285.44 316.929 287.769 316.929Z" fill="white"/>
<path d="M347.055 316.929C349.383 316.929 351.271 315.039 351.271 312.708C351.271 310.376 349.383 308.486 347.055 308.486C344.726 308.486 342.839 310.376 342.839 312.708C342.839 315.039 344.726 316.929 347.055 316.929Z" fill="white"/>
<path d="M406.341 316.929C408.669 316.929 410.557 315.039 410.557 312.708C410.557 310.376 408.669 308.486 406.341 308.486C404.013 308.486 402.125 310.376 402.125 312.708C402.125 315.039 404.013 316.929 406.341 316.929Z" fill="white"/>
<path d="M228.492 376.288C230.821 376.288 232.708 374.398 232.708 372.066C232.708 369.734 230.821 367.844 228.492 367.844C226.164 367.844 224.276 369.734 224.276 372.066C224.276 374.398 226.164 376.288 228.492 376.288Z" fill="white"/>
<path d="M287.769 376.288C290.097 376.288 291.985 374.398 291.985 372.066C291.985 369.734 290.097 367.844 287.769 367.844C285.44 367.844 283.553 369.734 283.553 372.066C283.553 374.398 285.44 376.288 287.769 376.288Z" fill="white"/>
<path d="M406.341 376.288C408.669 376.288 410.557 374.398 410.557 372.066C410.557 369.734 408.669 367.844 406.341 367.844C404.013 367.844 402.125 369.734 402.125 372.066C402.125 374.398 404.013 376.288 406.341 376.288Z" fill="white"/>
<path d="M228.492 435.656C230.821 435.656 232.708 433.766 232.708 431.435C232.708 429.103 230.821 427.213 228.492 427.213C226.164 427.213 224.276 429.103 224.276 431.435C224.276 433.766 226.164 435.656 228.492 435.656Z" fill="white"/>
<path d="M287.769 435.656C290.097 435.656 291.985 433.766 291.985 431.435C291.985 429.103 290.097 427.213 287.769 427.213C285.44 427.213 283.553 429.103 283.553 431.435C283.553 433.766 285.44 435.656 287.769 435.656Z" fill="white"/>
<path d="M347.055 435.656C349.383 435.656 351.271 433.766 351.271 431.435C351.271 429.103 349.383 427.213 347.055 427.213C344.726 427.213 342.839 429.103 342.839 431.435C342.839 433.766 344.726 435.656 347.055 435.656Z" fill="white"/>
<path d="M406.341 435.656C408.669 435.656 410.557 433.766 410.557 431.435C410.557 429.103 408.669 427.213 406.341 427.213C404.013 427.213 402.125 429.103 402.125 431.435C402.125 433.766 404.013 435.656 406.341 435.656Z" fill="white"/>
<path d="M347.055 376.288C349.383 376.288 351.271 374.398 351.271 372.066C351.271 369.734 349.383 367.844 347.055 367.844C344.726 367.844 342.839 369.734 342.839 372.066C342.839 374.398 344.726 376.288 347.055 376.288Z" fill="white"/>
<path d="M406.341 257.561C408.669 257.561 410.557 255.67 410.557 253.339C410.557 251.007 408.669 249.117 406.341 249.117C404.013 249.117 402.125 251.007 402.125 253.339C402.125 255.67 404.013 257.561 406.341 257.561Z" fill="white"/>
<path d="M465.617 257.561C467.946 257.561 469.833 255.67 469.833 253.339C469.833 251.007 467.946 249.117 465.617 249.117C463.289 249.117 461.401 251.007 461.401 253.339C461.401 255.67 463.289 257.561 465.617 257.561Z" fill="white"/>
<path d="M524.903 257.561C527.232 257.561 529.119 255.67 529.119 253.339C529.119 251.007 527.232 249.117 524.903 249.117C522.575 249.117 520.688 251.007 520.688 253.339C520.688 255.67 522.575 257.561 524.903 257.561Z" fill="white"/>
<path d="M406.341 316.929C408.669 316.929 410.557 315.039 410.557 312.708C410.557 310.376 408.669 308.486 406.341 308.486C404.013 308.486 402.125 310.376 402.125 312.708C402.125 315.039 404.013 316.929 406.341 316.929Z" fill="white"/>
<path d="M465.617 316.929C467.946 316.929 469.833 315.039 469.833 312.708C469.833 310.376 467.946 308.486 465.617 308.486C463.289 308.486 461.401 310.376 461.401 312.708C461.401 315.039 463.289 316.929 465.617 316.929Z" fill="white"/>
<path d="M524.903 316.929C527.232 316.929 529.119 315.039 529.119 312.708C529.119 310.376 527.232 308.486 524.903 308.486C522.575 308.486 520.688 310.376 520.688 312.708C520.688 315.039 522.575 316.929 524.903 316.929Z" fill="white"/>
<path d="M406.341 376.288C408.669 376.288 410.557 374.398 410.557 372.066C410.557 369.734 408.669 367.844 406.341 367.844C404.013 367.844 402.125 369.734 402.125 372.066C402.125 374.398 404.013 376.288 406.341 376.288Z" fill="white"/>
<path d="M465.617 376.288C467.946 376.288 469.833 374.398 469.833 372.066C469.833 369.734 467.946 367.844 465.617 367.844C463.289 367.844 461.401 369.734 461.401 372.066C461.401 374.398 463.289 376.288 465.617 376.288Z" fill="white"/>
<path d="M406.341 435.656C408.669 435.656 410.557 433.766 410.557 431.435C410.557 429.103 408.669 427.213 406.341 427.213C404.013 427.213 402.125 429.103 402.125 431.435C402.125 433.766 404.013 435.656 406.341 435.656Z" fill="white"/>
<path d="M465.617 435.656C467.946 435.656 469.833 433.766 469.833 431.435C469.833 429.103 467.946 427.213 465.617 427.213C463.289 427.213 461.401 429.103 461.401 431.435C461.401 433.766 463.289 435.656 465.617 435.656Z" fill="white"/>
<path d="M524.903 435.656C527.232 435.656 529.119 433.766 529.119 431.435C529.119 429.103 527.232 427.213 524.903 427.213C522.575 427.213 520.688 429.103 520.688 431.435C520.688 433.766 522.575 435.656 524.903 435.656Z" fill="white"/>
<path d="M524.903 376.288C527.232 376.288 529.119 374.398 529.119 372.066C529.119 369.734 527.232 367.844 524.903 367.844C522.575 367.844 520.688 369.734 520.688 372.066C520.688 374.398 522.575 376.288 524.903 376.288Z" fill="white"/>
</g>
<defs>
<clipPath id="clip0_356_2532">
<rect width="304.854" height="186.271" fill="white" transform="translate(224.276 249.396)"/>
</clipPath>
</defs>
</svg>
