<svg width="132" height="39" viewBox="0 0 132 39" fill="none" xmlns="http://www.w3.org/2000/svg">
<g clip-path="url(#clip0_356_2498)">
<path d="M53.7744 21.5246L48.961 11.2745H46.4619V27.7497H48.961V16.7345L52.8487 24.7659H54.7001L58.4964 16.7345V27.7497H60.9955V11.2745H58.4964L53.7744 21.5246Z" fill="#909AA3"/>
<path d="M70.3834 23.1686C70.3834 24.9749 69.2636 25.7811 67.9571 25.7811C66.6507 25.7811 65.5962 24.9936 65.5962 23.1686V16.018H63.2314V23.512C63.2314 24.8331 63.5095 25.9378 64.4129 26.8242C65.1072 27.4922 66.1019 27.8878 67.3058 27.8878C67.8897 27.8973 68.4691 27.7849 69.0071 27.5577C69.5451 27.3305 70.0298 26.9936 70.4301 26.5685V27.7479H72.7444V16.018H70.3834V23.1686Z" fill="#909AA3"/>
<path d="M77.3688 24.3722V11.2745H75.0078V24.5102C75.0078 26.2475 75.9802 27.7497 78.2254 27.7497H79.6812V25.7381H78.6416C77.6917 25.7381 77.3688 25.2735 77.3688 24.3722Z" fill="#909AA3"/>
<path d="M85.3587 15.8799C82.3501 15.8799 80.3848 18.08 80.3848 21.8736C80.3848 26.339 82.7215 27.8897 85.661 27.8897C87.7141 27.8897 88.8544 27.2627 90.0564 26.061L88.5521 24.6484C87.7197 25.4844 87.0272 25.8501 85.7058 25.8501C83.7853 25.8501 82.7196 24.5793 82.7196 22.5659H90.3326V21.5246C90.3326 18.1938 88.5073 15.8799 85.3587 15.8799ZM82.7215 20.9182C82.7439 20.2035 82.7905 19.8546 83.022 19.3227C83.2173 18.8697 83.5449 18.4861 83.9618 18.2221C84.3787 17.9581 84.8655 17.8259 85.3587 17.843C85.8491 17.8265 86.3331 17.9591 86.7466 18.2233C87.1601 18.4875 87.4838 18.8708 87.6749 19.3227C87.8998 19.8239 88.0101 20.369 87.9978 20.9182H82.7215Z" fill="#909AA3"/>
<path d="M101.987 19.6736C101.293 19.0503 100.438 18.679 98.9073 18.4476L97.0409 18.1714C96.364 18.093 95.7219 17.8289 95.1857 17.4082C94.9774 17.2138 94.8138 16.9764 94.7061 16.7125C94.5985 16.4487 94.5495 16.1646 94.5624 15.8799C94.5624 14.4226 95.6262 13.3104 97.571 13.3104C98.9577 13.3104 100.139 13.6108 101.156 14.583L102.754 13.01C101.343 11.6907 99.8162 11.144 97.64 11.144C94.2134 11.144 92.1305 13.1089 92.1305 15.9788C92.1305 17.3205 92.5262 18.3617 93.3362 19.1268C94.0529 19.7967 95.1167 20.2614 96.4586 20.4442L98.4015 20.7241C99.3758 20.8604 99.792 21.0246 100.208 21.4183C100.624 21.812 100.856 22.4129 100.856 23.1313C100.856 24.7268 99.6053 25.6505 97.4553 25.6505C95.7643 25.6505 94.4467 25.2773 93.2428 24.0774L91.5762 25.7214C93.1495 27.3187 94.9356 27.8972 97.4086 27.8972C100.856 27.8972 103.332 26.0908 103.332 23.0604C103.329 21.646 102.888 20.461 101.987 19.6736Z" fill="#909AA3"/>
<path d="M109.556 15.8799C107.961 15.8799 106.828 16.4808 106.062 17.2682C104.952 18.4233 104.674 19.9068 104.674 21.8736C104.674 23.8404 104.952 25.3444 106.062 26.4995C106.828 27.2869 107.961 27.8897 109.556 27.8897C111.152 27.8897 112.313 27.2869 113.074 26.4995C114.185 25.3444 114.463 23.8628 114.463 21.8736C114.463 19.8844 114.185 18.4233 113.074 17.2682C112.311 16.4808 111.152 15.8799 109.556 15.8799ZM111.294 25.0888C111.065 25.3144 110.794 25.492 110.495 25.6112C110.197 25.7304 109.878 25.7888 109.556 25.7829C109.239 25.7891 108.924 25.7307 108.63 25.6114C108.336 25.4921 108.07 25.3143 107.847 25.0888C107.126 24.3722 107.035 23.1444 107.035 21.8736C107.035 20.6028 107.126 19.3731 107.847 18.6566C108.071 18.4343 108.338 18.2601 108.632 18.1446C108.926 18.0291 109.241 17.9747 109.556 17.9848C109.876 17.975 110.195 18.0294 110.493 18.1448C110.792 18.2602 111.064 18.4342 111.294 18.6566C112.011 19.3731 112.104 20.5991 112.104 21.8736C112.104 23.1481 112.009 24.3722 111.292 25.0888H111.294Z" fill="#909AA3"/>
<path d="M116.849 14.4225V16.2344H115.505V18.0407H116.849V27.759H119.21V18.0314H121.546V16.2344H119.21V14.555C119.21 13.6985 119.622 13.1891 120.503 13.1891H121.546V11.1588H120.053C117.866 11.1588 116.849 12.7337 116.849 14.4225Z" fill="#909AA3"/>
<path d="M126.705 12.6647H124.348V16.2344H122.995V18.0408H124.341V24.4954C124.341 26.186 125.356 27.759 127.555 27.759H128.968V25.7381H127.997C127.12 25.7381 126.691 25.2287 126.691 24.3722V18.0277H128.968V16.2344H126.705V12.6647Z" fill="#909AA3"/>
<path d="M19.5037 0C15.6462 0 11.8754 1.14365 8.66804 3.28634C5.46067 5.42903 2.96083 8.47451 1.48464 12.0377C0.00845071 15.6008 -0.377788 19.5216 0.374767 23.3043C1.12732 27.0869 2.98487 30.5615 5.71251 33.2886C8.44016 36.0157 11.9154 37.8729 15.6987 38.6253C19.4821 39.3777 23.4036 38.9916 26.9675 37.5156C30.5313 36.0397 33.5774 33.5404 35.7205 30.3336C37.8636 27.1269 39.0074 23.3567 39.0074 19.5C39.0074 14.3283 36.9526 9.36838 33.2949 5.71142C29.6373 2.05446 24.6764 0 19.5037 0V0ZM19.5037 37.2851C15.9855 37.2851 12.5463 36.242 9.62095 34.2878C6.69565 32.3335 4.41565 29.5559 3.06928 26.3061C1.72291 23.0563 1.37064 19.4803 2.05702 16.0303C2.74339 12.5803 4.43758 9.41131 6.92535 6.92402C9.41311 4.43673 12.5827 2.74286 16.0334 2.05662C19.484 1.37037 23.0607 1.72258 26.3111 3.06869C29.5615 4.41481 32.3397 6.69437 34.2943 9.61912C36.2489 12.5439 37.2922 15.9824 37.2922 19.5C37.2922 24.2169 35.4181 28.7406 32.0821 32.076C28.7461 35.4113 24.2215 37.2851 19.5037 37.2851Z" fill="#909AA3"/>
<path d="M33.5503 15.6224C31.9826 9.7724 27.1188 7.09091 27.1188 7.09091L26.5719 7.94742L19.5151 18.9943L12.4434 7.92876L11.9115 7.09091C11.9115 7.09091 7.04768 9.7724 5.47619 15.628C4.93979 17.501 4.79339 19.4642 5.04604 21.396C5.29868 23.3279 5.945 25.1874 6.94503 26.8596C8.43928 29.4136 10.6771 31.4511 13.3598 32.7003L14.6663 27.7255C11.7379 26.3446 9.61396 23.5493 9.61396 19.9423C9.60852 18.127 10.1418 16.3509 11.1463 14.8387L17.2437 24.3703H21.7809L27.8803 14.8387C28.8847 16.3509 29.418 18.127 29.4126 19.9423C29.4126 23.5493 27.2886 26.3446 24.3603 27.7255L25.6667 32.7003C28.3494 31.4511 30.5872 29.4136 32.0815 26.8596C33.082 25.1866 33.7285 23.3261 33.9812 21.3933C34.2338 19.4604 34.0872 17.4963 33.5503 15.6224Z" fill="#909AA3"/>
</g>
<defs>
<clipPath id="clip0_356_2498">
<rect width="132" height="39" fill="white"/>
</clipPath>
</defs>
</svg>
