<svg xmlns="http://www.w3.org/2000/svg" xmlns:xlink="http://www.w3.org/1999/xlink" viewBox="0 0 66 65" fill="#fff" fill-rule="evenodd" stroke="#000" stroke-linecap="round" stroke-linejoin="round"><use xlink:href="#A" x=".5" y=".5"/><symbol id="A" overflow="visible"><path d="M32.02 61.279c-16.128 0-29.2-13.072-29.2-29.2-.02-16.148 13.052-29.22 29.2-29.22 16.128 0 29.2 13.072 29.2 29.2s-13.072 29.22-29.2 29.22zM32 0C14.354 0 0 14.295 0 31.862c0 17.587 14.354 31.882 32 31.882s32.02-14.295 32.02-31.862C64.02 14.295 49.666 0 32 0zm-8.103 46.176c-4.83-2.268-8.182-7.394-8.182-13.329 0-3.136.927-6.033 2.523-8.399l10.529 15.697h6.371l10.529-15.697c1.597 2.366 2.523 5.285 2.523 8.399 0 5.54-2.917 10.351-7.215 12.857l2.03 7.768c7.73-3.982 12.991-12.028 12.991-21.314 0-8.773-4.713-16.426-11.731-20.604L32.043 30.423 19.954 11.475c-7.1 4.16-11.869 11.869-11.869 20.683 0 9.622 5.661 17.923 13.841 21.728z" stroke="none" fill="#00a1df" fill-rule="nonzero"/></symbol></svg>